<svg width="903" height="1073" xmlns="http://www.w3.org/2000/svg" xmlns:xlink="http://www.w3.org/1999/xlink" xml:space="preserve" overflow="hidden"><g transform="translate(-1242 -1324)"><g><path d="M1397.5 1496.9C1397.5 1481.77 1409.77 1469.5 1424.9 1469.5L2022.1 1469.5C2037.23 1469.5 2049.5 1481.77 2049.5 1496.9L2049.5 2352.1C2049.5 2367.23 2037.23 2379.5 2022.1 2379.5L1424.9 2379.5C1409.77 2379.5 1397.5 2367.23 1397.5 2352.1Z" stroke="#000000" stroke-width="33.2292" stroke-linecap="butt" stroke-linejoin="miter" stroke-miterlimit="8" stroke-opacity="1" fill="none" fill-rule="evenodd"/><path d="M1397.5 1479.46C1397.5 1473.96 1401.96 1469.5 1407.46 1469.5L1627.54 1469.5C1633.04 1469.5 1637.5 1473.96 1637.5 1479.46L1637.5 1696.54C1637.5 1702.04 1633.04 1706.5 1627.54 1706.5L1407.46 1706.5C1401.96 1706.5 1397.5 1702.04 1397.5 1696.54Z" stroke="#000000" stroke-width="33.2292" stroke-linecap="butt" stroke-linejoin="miter" stroke-miterlimit="8" stroke-opacity="1" fill="none" fill-rule="evenodd"/><path d="M0 0 240 236.734" stroke="#000000" stroke-width="32.0833" stroke-linecap="butt" stroke-linejoin="miter" stroke-miterlimit="8" stroke-opacity="1" fill="none" fill-rule="evenodd" transform="matrix(1 0 0 -1 1397 1701.73)"/><path d="M1247.43 1589.19 1509.57 1330.75 1627.2 1450.06 1365.06 1708.5Z" stroke="#FFFFFF" stroke-width="4.58333" stroke-linecap="butt" stroke-linejoin="miter" stroke-miterlimit="8" stroke-opacity="1" fill="#FFFFFF" fill-rule="nonzero" fill-opacity="1"/><path d="M1303.5 1979.33C1303.5 1963.96 1315.96 1951.5 1331.33 1951.5L2111.67 1951.5C2127.04 1951.5 2139.5 1963.96 2139.5 1979.33L2139.5 2145.67C2139.5 2161.04 2127.04 2173.5 2111.67 2173.5L1331.33 2173.5C1315.96 2173.5 1303.5 2161.04 1303.5 2145.67Z" stroke="#000000" stroke-width="4.58333" stroke-linecap="butt" stroke-linejoin="miter" stroke-miterlimit="8" stroke-opacity="1" fill="#000000" fill-rule="evenodd" fill-opacity="1"/><text fill="#FFFFFF" fill-opacity="1" font-family="Avenir Book,Avenir Book_MSFontService,sans-serif" font-style="normal" font-variant="normal" font-weight="700" font-stretch="normal" font-size="92" text-anchor="start" direction="ltr" writing-mode="lr-tb" unicode-bidi="normal" text-decoration="none" transform="matrix(1 0 0 1 1480.2 2090)">Alignments</text></g></g></svg>