<svg width="903" height="1077" xmlns="http://www.w3.org/2000/svg" xmlns:xlink="http://www.w3.org/1999/xlink" xml:space="preserve" overflow="hidden"><g transform="translate(-334 -1090)"><g><path d="M490.5 1265.9C490.5 1250.77 502.769 1238.5 517.904 1238.5L1115.1 1238.5C1130.23 1238.5 1142.5 1250.77 1142.5 1265.9L1142.5 2121.1C1142.5 2136.23 1130.23 2148.5 1115.1 2148.5L517.904 2148.5C502.769 2148.5 490.5 2136.23 490.5 2121.1Z" stroke="#000000" stroke-width="33.2292" stroke-linecap="butt" stroke-linejoin="miter" stroke-miterlimit="8" stroke-opacity="1" fill="none" fill-rule="evenodd"/><path d="M490.5 1248.42C490.5 1242.94 494.941 1238.5 500.419 1238.5L720.581 1238.5C726.059 1238.5 730.5 1242.94 730.5 1248.42L730.5 1464.58C730.5 1470.06 726.059 1474.5 720.581 1474.5L500.419 1474.5C494.941 1474.5 490.5 1470.06 490.5 1464.58Z" stroke="#000000" stroke-width="33.2292" stroke-linecap="butt" stroke-linejoin="miter" stroke-miterlimit="8" stroke-opacity="1" fill="none" fill-rule="evenodd"/><path d="M0 0 240 236.734" stroke="#000000" stroke-width="32.0833" stroke-linecap="butt" stroke-linejoin="miter" stroke-miterlimit="8" stroke-opacity="1" fill="none" fill-rule="evenodd" transform="matrix(1 0 0 -1 490 1469.73)"/><path d="M340.168 1357.22 602.307 1098.78 719.931 1218.09 457.792 1476.53Z" stroke="#FFFFFF" stroke-width="4.58333" stroke-linecap="butt" stroke-linejoin="miter" stroke-miterlimit="8" stroke-opacity="1" fill="#FFFFFF" fill-rule="nonzero" fill-opacity="1"/><path d="M396.5 1747.33C396.5 1731.96 408.959 1719.5 424.327 1719.5L1204.67 1719.5C1220.04 1719.5 1232.5 1731.96 1232.5 1747.33L1232.5 1913.67C1232.5 1929.04 1220.04 1941.5 1204.67 1941.5L424.327 1941.5C408.959 1941.5 396.5 1929.04 396.5 1913.67Z" stroke="#000000" stroke-width="4.58333" stroke-linecap="butt" stroke-linejoin="miter" stroke-miterlimit="8" stroke-opacity="1" fill="#000000" fill-rule="evenodd" fill-opacity="1"/><text fill="#FFFFFF" fill-opacity="1" font-family="Avenir Book,Avenir Book_MSFontService,sans-serif" font-style="normal" font-variant="normal" font-weight="700" font-stretch="normal" font-size="110" text-anchor="start" direction="ltr" writing-mode="lr-tb" unicode-bidi="normal" text-decoration="none" transform="matrix(1 0 0 1 529.111 1864)">Annotation</text></g></g></svg>