<svg width="903" height="1072" xmlns="http://www.w3.org/2000/svg" xmlns:xlink="http://www.w3.org/1999/xlink" xml:space="preserve" overflow="hidden"><g transform="translate(-394 -18)"><g><path d="M548.5 188.904C548.5 173.769 560.769 161.5 575.904 161.5L1173.1 161.5C1188.23 161.5 1200.5 173.769 1200.5 188.904L1200.5 1044.1C1200.5 1059.23 1188.23 1071.5 1173.1 1071.5L575.904 1071.5C560.769 1071.5 548.5 1059.23 548.5 1044.1Z" stroke="#000000" stroke-width="33.2292" stroke-linecap="butt" stroke-linejoin="miter" stroke-miterlimit="8" stroke-opacity="1" fill="none" fill-rule="evenodd"/><path d="M548.5 171.461C548.5 165.96 552.96 161.5 558.461 161.5L778.539 161.5C784.04 161.5 788.5 165.96 788.5 171.461L788.5 388.539C788.5 394.04 784.04 398.5 778.539 398.5L558.461 398.5C552.96 398.5 548.5 394.04 548.5 388.539Z" stroke="#000000" stroke-width="33.2292" stroke-linecap="butt" stroke-linejoin="miter" stroke-miterlimit="8" stroke-opacity="1" fill="none" fill-rule="evenodd"/><path d="M0 0 240 236.734" stroke="#000000" stroke-width="32.0833" stroke-linecap="butt" stroke-linejoin="miter" stroke-miterlimit="8" stroke-opacity="1" fill="none" fill-rule="evenodd" transform="matrix(1 0 0 -1 548 393.734)"/><path d="M398.66 280.819 660.799 22.3799 778.423 141.688 516.284 400.127Z" stroke="#FFFFFF" stroke-width="4.58333" stroke-linecap="butt" stroke-linejoin="miter" stroke-miterlimit="8" stroke-opacity="1" fill="#FFFFFF" fill-rule="nonzero" fill-opacity="1"/><path d="M454.5 671.202C454.5 655.903 466.903 643.5 482.202 643.5L1262.8 643.5C1278.1 643.5 1290.5 655.903 1290.5 671.202L1290.5 836.798C1290.5 852.097 1278.1 864.5 1262.8 864.5L482.202 864.5C466.903 864.5 454.5 852.097 454.5 836.798Z" stroke="#000000" stroke-width="4.58333" stroke-linecap="butt" stroke-linejoin="miter" stroke-miterlimit="8" stroke-opacity="1" fill="#000000" fill-rule="evenodd" fill-opacity="1"/><text fill="#FFFFFF" fill-opacity="1" font-family="Avenir Book,Avenir Book_MSFontService,sans-serif" font-style="normal" font-variant="normal" font-weight="700" font-stretch="normal" font-size="110" text-anchor="start" direction="ltr" writing-mode="lr-tb" unicode-bidi="normal" text-decoration="none" transform="matrix(1 0 0 1 528.719 788)">Chromosome</text></g></g></svg>