<svg width="972" height="1123" xmlns="http://www.w3.org/2000/svg" xmlns:xlink="http://www.w3.org/1999/xlink" xml:space="preserve" overflow="hidden"><g transform="translate(-458 -201)"><g><path d="M588.5 907.202C588.5 891.903 600.903 879.5 616.202 879.5L1396.8 879.5C1412.1 879.5 1424.5 891.903 1424.5 907.202L1424.5 1072.8C1424.5 1088.1 1412.1 1100.5 1396.8 1100.5L616.202 1100.5C600.903 1100.5 588.5 1088.1 588.5 1072.8Z" stroke="#000000" stroke-width="4.58333" stroke-linecap="butt" stroke-linejoin="miter" stroke-miterlimit="8" stroke-opacity="1" fill="#000000" fill-rule="evenodd" fill-opacity="1"/><path d="M682.5 424.903C682.5 409.769 694.769 397.5 709.903 397.5L1307.1 397.5C1322.23 397.5 1334.5 409.769 1334.5 424.903L1334.5 1280.1C1334.5 1295.23 1322.23 1307.5 1307.1 1307.5L709.903 1307.5C694.769 1307.5 682.5 1295.23 682.5 1280.1Z" stroke="#000000" stroke-width="33.2292" stroke-linecap="butt" stroke-linejoin="miter" stroke-miterlimit="8" stroke-opacity="1" fill="none" fill-rule="evenodd"/><path d="M682.5 407.419C682.5 401.941 686.941 397.5 692.419 397.5L912.581 397.5C918.059 397.5 922.5 401.941 922.5 407.419L922.5 623.581C922.5 629.059 918.059 633.5 912.581 633.5L692.419 633.5C686.941 633.5 682.5 629.059 682.5 623.581Z" stroke="#000000" stroke-width="33.2292" stroke-linecap="butt" stroke-linejoin="miter" stroke-miterlimit="8" stroke-opacity="1" fill="none" fill-rule="evenodd"/><path d="M0 0 240 236.734" stroke="#000000" stroke-width="32.0833" stroke-linecap="butt" stroke-linejoin="miter" stroke-miterlimit="8" stroke-opacity="1" fill="none" fill-rule="evenodd" transform="matrix(1 0 0 -1 682 629.734)"/><path d="M465.86 558.378 820.624 208.62 949.804 339.649 595.04 689.406Z" stroke="#FFFFFF" stroke-width="4.58333" stroke-linecap="butt" stroke-linejoin="miter" stroke-miterlimit="8" stroke-opacity="1" fill="#FFFFFF" fill-rule="nonzero" fill-opacity="1"/></g></g></svg>