<svg width="903" height="1073" xmlns="http://www.w3.org/2000/svg" xmlns:xlink="http://www.w3.org/1999/xlink" xml:space="preserve" overflow="hidden"><g transform="translate(-1411 -1127)"><g><path d="M1567.5 1297.9C1567.5 1282.77 1579.77 1270.5 1594.9 1270.5L2192.1 1270.5C2207.23 1270.5 2219.5 1282.77 2219.5 1297.9L2219.5 2153.1C2219.5 2168.23 2207.23 2180.5 2192.1 2180.5L1594.9 2180.5C1579.77 2180.5 1567.5 2168.23 1567.5 2153.1Z" stroke="#000000" stroke-width="33.2292" stroke-linecap="butt" stroke-linejoin="miter" stroke-miterlimit="8" stroke-opacity="1" fill="none" fill-rule="evenodd"/><path d="M1567.5 1280.46C1567.5 1274.96 1571.96 1270.5 1577.46 1270.5L1797.54 1270.5C1803.04 1270.5 1807.5 1274.96 1807.5 1280.46L1807.5 1497.54C1807.5 1503.04 1803.04 1507.5 1797.54 1507.5L1577.46 1507.5C1571.96 1507.5 1567.5 1503.04 1567.5 1497.54Z" stroke="#000000" stroke-width="33.2292" stroke-linecap="butt" stroke-linejoin="miter" stroke-miterlimit="8" stroke-opacity="1" fill="none" fill-rule="evenodd"/><path d="M0 0 240 236.734" stroke="#000000" stroke-width="32.0833" stroke-linecap="butt" stroke-linejoin="miter" stroke-miterlimit="8" stroke-opacity="1" fill="none" fill-rule="evenodd" transform="matrix(1 0 0 -1 1567 1502.73)"/><path d="M1417.1 1389.97 1679.24 1131.53 1796.86 1250.84 1534.72 1509.28Z" stroke="#FFFFFF" stroke-width="4.58333" stroke-linecap="butt" stroke-linejoin="miter" stroke-miterlimit="8" stroke-opacity="1" fill="#FFFFFF" fill-rule="nonzero" fill-opacity="1"/><path d="M1473.5 1780.2C1473.5 1764.9 1485.9 1752.5 1501.2 1752.5L2281.8 1752.5C2297.1 1752.5 2309.5 1764.9 2309.5 1780.2L2309.5 1945.8C2309.5 1961.1 2297.1 1973.5 2281.8 1973.5L1501.2 1973.5C1485.9 1973.5 1473.5 1961.1 1473.5 1945.8Z" stroke="#000000" stroke-width="4.58333" stroke-linecap="butt" stroke-linejoin="miter" stroke-miterlimit="8" stroke-opacity="1" fill="#000000" fill-rule="evenodd" fill-opacity="1"/><text fill="#FFFFFF" fill-opacity="1" font-family="Avenir Book,Avenir Book_MSFontService,sans-serif" font-style="normal" font-variant="normal" font-weight="700" font-stretch="normal" font-size="110" text-anchor="start" direction="ltr" writing-mode="lr-tb" unicode-bidi="normal" text-decoration="none" transform="matrix(1 0 0 1 1703.72 1897)">GENES</text></g></g></svg>