<svg width="903" height="1072" xmlns="http://www.w3.org/2000/svg" xmlns:xlink="http://www.w3.org/1999/xlink" xml:space="preserve" overflow="hidden"><g transform="translate(-2167 87)"><g><path d="M2324.5 83.9034C2324.5 68.7688 2336.77 56.4999 2351.9 56.4999L2949.1 56.4999C2964.23 56.4999 2976.5 68.7688 2976.5 83.9034L2976.5 939.097C2976.5 954.231 2964.23 966.5 2949.1 966.5L2351.9 966.5C2336.77 966.5 2324.5 954.231 2324.5 939.097Z" stroke="#000000" stroke-width="33.2292" stroke-linecap="butt" stroke-linejoin="miter" stroke-miterlimit="8" stroke-opacity="1" fill="none" fill-rule="evenodd"/><path d="M2324.5 66.419C2324.5 60.9408 2328.94 56.4999 2334.42 56.4999L2554.58 56.4999C2560.06 56.4999 2564.5 60.9408 2564.5 66.419L2564.5 282.581C2564.5 288.059 2560.06 292.5 2554.58 292.5L2334.42 292.5C2328.94 292.5 2324.5 288.059 2324.5 282.581Z" stroke="#000000" stroke-width="33.2292" stroke-linecap="butt" stroke-linejoin="miter" stroke-miterlimit="8" stroke-opacity="1" fill="none" fill-rule="evenodd"/><path d="M0 0 240 236.734" stroke="#000000" stroke-width="32.0833" stroke-linecap="butt" stroke-linejoin="miter" stroke-miterlimit="8" stroke-opacity="1" fill="none" fill-rule="evenodd" transform="matrix(1 0 0 -1 2324 288.734)"/><path d="M2174.27 175.302 2436.41-83.1371 2554.04 36.1707 2291.9 294.61Z" stroke="#FFFFFF" stroke-width="4.58333" stroke-linecap="butt" stroke-linejoin="miter" stroke-miterlimit="8" stroke-opacity="1" fill="#FFFFFF" fill-rule="nonzero" fill-opacity="1"/><path d="M2230.5 566.202C2230.5 550.903 2242.9 538.5 2258.2 538.5L3038.8 538.5C3054.1 538.5 3066.5 550.903 3066.5 566.202L3066.5 731.798C3066.5 747.097 3054.1 759.5 3038.8 759.5L2258.2 759.5C2242.9 759.5 2230.5 747.097 2230.5 731.798Z" stroke="#000000" stroke-width="4.58333" stroke-linecap="butt" stroke-linejoin="miter" stroke-miterlimit="8" stroke-opacity="1" fill="#000000" fill-rule="evenodd" fill-opacity="1"/><text fill="#FFFFFF" fill-opacity="1" font-family="Avenir Book,Avenir Book_MSFontService,sans-serif" font-style="normal" font-variant="normal" font-weight="700" font-stretch="normal" font-size="92" text-anchor="start" direction="ltr" writing-mode="lr-tb" unicode-bidi="normal" text-decoration="none" transform="matrix(1 0 0 1 2302.78 676)">Genes Summary</text></g></g></svg>