<svg width="4336" height="2329" xmlns="http://www.w3.org/2000/svg" xmlns:xlink="http://www.w3.org/1999/xlink" xml:space="preserve" overflow="hidden"><g transform="translate(-22 -68)"><g><path d="M30.9999 533.549C30.9999 499.004 59.0043 471 93.5493 471L724.45 471C758.996 471 787 499.004 787 533.549L787 1066.45C787 1101 758.996 1129 724.45 1129L93.5493 1129C59.0043 1129 30.9999 1101 30.9999 1066.45Z" stroke="#E7E6E6" stroke-width="13.75" stroke-linecap="butt" stroke-linejoin="miter" stroke-miterlimit="8" stroke-opacity="1" fill="none" fill-rule="evenodd"/><g><g><g><path d="M644.238 533.433C644.238 527.215 649.281 522.172 655.5 522.172L900.947 522.172C907.165 522.172 912.208 527.215 912.208 533.433L912.208 884.918C912.208 891.137 907.165 896.18 900.947 896.18L655.5 896.18C649.281 896.18 644.238 891.137 644.238 884.918Z" stroke="#000000" stroke-width="13.6571" stroke-linecap="butt" stroke-linejoin="miter" stroke-miterlimit="8" stroke-opacity="1" fill="none" fill-rule="evenodd" transform="matrix(1.00234 0 0 1 2016.72 1132.81)"/><path d="M644.238 526.266C644.238 524.005 646.071 522.172 648.332 522.172L738.784 522.172C741.044 522.172 742.878 524.005 742.878 526.266L742.878 615.485C742.878 617.745 741.044 619.578 738.784 619.578L648.332 619.578C646.071 619.578 644.238 617.745 644.238 615.485Z" stroke="#000000" stroke-width="13.6571" stroke-linecap="butt" stroke-linejoin="miter" stroke-miterlimit="8" stroke-opacity="1" fill="none" fill-rule="evenodd" transform="matrix(1.00234 0 0 1 2016.72 1132.81)"/><path d="M0 0 98.6393 97.297" stroke="#000000" stroke-width="13.1861" stroke-linecap="butt" stroke-linejoin="miter" stroke-miterlimit="8" stroke-opacity="1" fill="none" fill-rule="evenodd" transform="matrix(1.00234 0 0 -1 2662.27 1750.42)"/><path d="M582.424 571.274 690.163 465.056 738.505 514.092 630.766 620.31Z" stroke="#FFFFFF" stroke-width="1.88374" stroke-linecap="butt" stroke-linejoin="miter" stroke-miterlimit="8" stroke-opacity="1" fill="#FFFFFF" fill-rule="nonzero" fill-opacity="1" transform="matrix(1.00234 0 0 1 2016.72 1132.81)"/><path d="M605.604 731.657C605.604 725.369 610.701 720.273 616.989 720.273L937.814 720.273C944.102 720.273 949.198 725.369 949.198 731.657L949.198 799.718C949.198 806.007 944.102 811.103 937.814 811.103L616.989 811.103C610.701 811.103 605.604 806.007 605.604 799.718Z" stroke="#000000" stroke-width="1.88374" stroke-linecap="butt" stroke-linejoin="miter" stroke-miterlimit="8" stroke-opacity="1" fill="#000000" fill-rule="evenodd" fill-opacity="1" transform="matrix(1.00234 0 0 1 2016.72 1132.81)"/><text fill="#FFFFFF" fill-opacity="1" font-family="Avenir Book,Avenir Book_MSFontService,sans-serif" font-style="normal" font-variant="normal" font-weight="700" font-stretch="normal" font-size="110" text-anchor="start" direction="ltr" writing-mode="lr-tb" unicode-bidi="normal" text-decoration="none" transform="matrix(0.41196 0 0 0.410997 2718.59 1912)">GENES</text></g></g></g><g><g><g><path d="M97.5181 72.7415C97.5181 66.5531 102.535 61.5366 108.723 61.5366L352.904 61.5366C359.092 61.5366 364.108 66.5531 364.108 72.7415L364.108 422.415C364.108 428.601 359.092 433.618 352.904 433.618L108.723 433.618C102.535 433.618 97.5181 428.601 97.5181 422.415Z" stroke="#000000" stroke-width="13.5868" stroke-linecap="butt" stroke-linejoin="miter" stroke-miterlimit="8" stroke-opacity="1" fill="none" fill-rule="evenodd" transform="matrix(1.00198 0 0 1 368.454 656.635)"/><path d="M97.5181 65.6094C97.5181 63.3602 99.3417 61.5366 101.591 61.5366L191.577 61.5366C193.826 61.5366 195.649 63.3602 195.649 65.6094L195.649 154.368C195.649 156.618 193.826 158.441 191.577 158.441L101.591 158.441C99.3417 158.441 97.5181 156.618 97.5181 154.368Z" stroke="#000000" stroke-width="13.5868" stroke-linecap="butt" stroke-linejoin="miter" stroke-miterlimit="8" stroke-opacity="1" fill="none" fill-rule="evenodd" transform="matrix(1.00198 0 0 1 368.454 656.635)"/><path d="M0 0 98.1314 96.796" stroke="#000000" stroke-width="13.1182" stroke-linecap="butt" stroke-linejoin="miter" stroke-miterlimit="8" stroke-opacity="1" fill="none" fill-rule="evenodd" transform="matrix(1.00198 0 0 -1 465.96 813.128)"/><path d="M34.235 102.627 137.337 0.980782 190.156 54.5561 87.054 156.203Z" stroke="#FFFFFF" stroke-width="1.87404" stroke-linecap="butt" stroke-linejoin="miter" stroke-miterlimit="8" stroke-opacity="1" fill="#FFFFFF" fill-rule="nonzero" fill-opacity="1" transform="matrix(1.00198 0 0 1 368.454 656.635)"/><path d="M59.0833 269.944C59.0833 263.688 64.1546 258.617 70.4101 258.617L389.581 258.617C395.836 258.617 400.908 263.688 400.908 269.944L400.908 337.653C400.908 343.908 395.836 348.98 389.581 348.98L70.4101 348.98C64.1546 348.98 59.0833 343.908 59.0833 337.653Z" stroke="#000000" stroke-width="1.87404" stroke-linecap="butt" stroke-linejoin="miter" stroke-miterlimit="8" stroke-opacity="1" fill="#000000" fill-rule="evenodd" fill-opacity="1" transform="matrix(1.00198 0 0 1 368.454 656.635)"/><text fill="#FFFFFF" fill-opacity="1" font-family="Avenir Book,Avenir Book_MSFontService,sans-serif" font-style="normal" font-variant="normal" font-weight="700" font-stretch="normal" font-size="83" text-anchor="start" direction="ltr" writing-mode="lr-tb" unicode-bidi="normal" text-decoration="none" transform="matrix(0.409692 0 0 0.408881 452.548 971)">READS FORWARD</text></g></g></g><g><g><g><path d="M452.916 73.2839C452.916 67.0493 457.971 61.9953 464.203 61.9953L710.207 61.9953C716.44 61.9953 721.494 67.0493 721.494 73.2839L721.494 425.564C721.494 431.797 716.44 436.851 710.207 436.851L464.203 436.851C457.971 436.851 452.916 431.797 452.916 425.564Z" stroke="#000000" stroke-width="13.6881" stroke-linecap="butt" stroke-linejoin="miter" stroke-miterlimit="8" stroke-opacity="1" fill="none" fill-rule="evenodd" transform="matrix(1.00007 0 0 1 -361.89 653.352)"/><path d="M452.916 66.0986C452.916 63.8326 454.753 61.9953 457.019 61.9953L547.676 61.9953C549.942 61.9953 551.779 63.8326 551.779 66.0986L551.779 155.519C551.779 157.785 549.942 159.623 547.676 159.623L457.019 159.623C454.753 159.623 452.916 157.785 452.916 155.519Z" stroke="#000000" stroke-width="13.6881" stroke-linecap="butt" stroke-linejoin="miter" stroke-miterlimit="8" stroke-opacity="1" fill="none" fill-rule="evenodd" transform="matrix(1.00007 0 0 1 -361.89 653.352)"/><path d="M0 0 98.863 97.5176" stroke="#000000" stroke-width="13.216" stroke-linecap="butt" stroke-linejoin="miter" stroke-miterlimit="8" stroke-opacity="1" fill="none" fill-rule="evenodd" transform="matrix(1.00007 0 0 -1 90.854 811.011)"/><path d="M391.019 111.239 499.003 4.78019 547.454 53.9265 439.471 160.385Z" stroke="#FFFFFF" stroke-width="1.88801" stroke-linecap="butt" stroke-linejoin="miter" stroke-miterlimit="8" stroke-opacity="1" fill="#FFFFFF" fill-rule="nonzero" fill-opacity="1" transform="matrix(1.00007 0 0 1 -361.89 653.352)"/><path d="M414.195 271.957C414.195 265.654 419.303 260.545 425.605 260.545L747.157 260.545C753.46 260.545 758.568 265.654 758.568 271.957L758.568 340.17C758.568 346.472 753.46 351.582 747.157 351.582L425.605 351.582C419.303 351.582 414.195 346.472 414.195 340.17Z" stroke="#000000" stroke-width="1.88801" stroke-linecap="butt" stroke-linejoin="miter" stroke-miterlimit="8" stroke-opacity="1" fill="#000000" fill-rule="evenodd" fill-opacity="1" transform="matrix(1.00007 0 0 1 -361.89 653.352)"/><text fill="#FFFFFF" fill-opacity="1" font-family="Avenir Book,Avenir Book_MSFontService,sans-serif" font-style="normal" font-variant="normal" font-weight="700" font-stretch="normal" font-size="83" text-anchor="start" direction="ltr" writing-mode="lr-tb" unicode-bidi="normal" text-decoration="none" transform="matrix(0.41196 0 0 0.411929 91.5378 970)">READS REVERSE</text></g></g></g><g><g><g><path d="M290.178 534.248C290.178 528.025 295.224 522.978 301.449 522.978L547.081 522.978C553.304 522.978 558.351 528.025 558.351 534.248L558.351 885.999C558.351 892.222 553.304 897.269 547.081 897.269L301.449 897.269C295.224 897.269 290.178 892.222 290.178 885.999Z" stroke="#000000" stroke-width="13.6674" stroke-linecap="butt" stroke-linejoin="miter" stroke-miterlimit="8" stroke-opacity="1" fill="none" fill-rule="evenodd" transform="matrix(1 0 0 1.00151 -91.2194 904.756)"/><path d="M290.178 527.075C290.178 524.813 292.012 522.978 294.275 522.978L384.795 522.978C387.057 522.978 388.892 524.813 388.892 527.075L388.892 616.362C388.892 618.624 387.057 620.458 384.795 620.458L294.275 620.458C292.012 620.458 290.178 618.624 290.178 616.362Z" stroke="#000000" stroke-width="13.6674" stroke-linecap="butt" stroke-linejoin="miter" stroke-miterlimit="8" stroke-opacity="1" fill="none" fill-rule="evenodd" transform="matrix(1 0 0 1.00151 -91.2194 904.756)"/><path d="M0 0 98.7139 97.3706" stroke="#000000" stroke-width="13.1961" stroke-linecap="butt" stroke-linejoin="miter" stroke-miterlimit="8" stroke-opacity="1" fill="none" fill-rule="evenodd" transform="matrix(1 0 0 -1.00151 198.753 1524.19)"/><path d="M228.568 572.064 336.388 465.765 384.768 514.834 276.948 621.133Z" stroke="#FFFFFF" stroke-width="1.88516" stroke-linecap="butt" stroke-linejoin="miter" stroke-miterlimit="8" stroke-opacity="1" fill="#FFFFFF" fill-rule="nonzero" fill-opacity="1" transform="matrix(1 0 0 1.00151 -91.2194 904.756)"/><path d="M251.515 732.622C251.515 726.329 256.616 721.229 262.909 721.229L583.975 721.229C590.268 721.229 595.368 726.329 595.368 732.622L595.368 800.735C595.368 807.028 590.268 812.128 583.975 812.128L262.909 812.128C256.616 812.128 251.515 807.028 251.515 800.735Z" stroke="#000000" stroke-width="1.88516" stroke-linecap="butt" stroke-linejoin="miter" stroke-miterlimit="8" stroke-opacity="1" fill="#000000" fill-rule="evenodd" fill-opacity="1" transform="matrix(1 0 0 1.00151 -91.2194 904.756)"/><text fill="#FFFFFF" fill-opacity="1" font-family="Avenir Book,Avenir Book_MSFontService,sans-serif" font-style="normal" font-variant="normal" font-weight="700" font-stretch="normal" font-size="110" text-anchor="start" direction="ltr" writing-mode="lr-tb" unicode-bidi="normal" text-decoration="none" transform="matrix(0.411308 0 0 0.411929 201.278 1687)">REFERENCE</text></g></g></g><path d="M892.5 1027.17C892.5 1013.54 903.544 1002.5 917.167 1002.5L1178.83 1002.5C1192.46 1002.5 1203.5 1013.54 1203.5 1027.17L1203.5 1125.83C1203.5 1139.46 1192.46 1150.5 1178.83 1150.5L917.167 1150.5C903.544 1150.5 892.5 1139.46 892.5 1125.83Z" stroke="#075353" stroke-width="3.4375" stroke-linecap="butt" stroke-linejoin="round" stroke-miterlimit="10" stroke-opacity="1" fill="none" fill-rule="evenodd"/><text fill="#000000" fill-opacity="1" font-family="Avenir Book,Avenir Book_MSFontService,sans-serif" font-style="normal" font-variant="normal" font-weight="700" font-stretch="normal" font-size="83" text-anchor="start" direction="ltr" writing-mode="lr-tb" unicode-bidi="normal" text-decoration="none" transform="matrix(1 0 0 1 932.019 1101)">fastqc</text><path d="M1162.5 664C1162.5 650.469 1173.47 639.5 1187 639.5L1703 639.5C1716.53 639.5 1727.5 650.469 1727.5 664L1727.5 761.999C1727.5 775.531 1716.53 786.5 1703 786.5L1187 786.5C1173.47 786.5 1162.5 775.531 1162.5 761.999Z" stroke="#075353" stroke-width="3.4375" stroke-linecap="butt" stroke-linejoin="round" stroke-miterlimit="10" stroke-opacity="1" fill="none" fill-rule="evenodd"/><text fill="#000000" fill-opacity="1" font-family="Avenir Book,Avenir Book_MSFontService,sans-serif" font-style="normal" font-variant="normal" font-weight="700" font-stretch="normal" font-size="83" text-anchor="start" direction="ltr" writing-mode="lr-tb" unicode-bidi="normal" text-decoration="none" transform="matrix(1 0 0 1 1201.79 738)">trimmomatic</text><path d="M1628.5 1006C1628.5 992.469 1639.47 981.5 1653 981.5L2024 981.5C2037.53 981.5 2048.5 992.469 2048.5 1006L2048.5 1104C2048.5 1117.53 2037.53 1128.5 2024 1128.5L1653 1128.5C1639.47 1128.5 1628.5 1117.53 1628.5 1104Z" stroke="#075353" stroke-width="3.4375" stroke-linecap="butt" stroke-linejoin="round" stroke-miterlimit="10" stroke-opacity="1" fill="none" fill-rule="evenodd"/><text fill="#000000" fill-opacity="1" font-family="Avenir Book,Avenir Book_MSFontService,sans-serif" font-style="normal" font-variant="normal" font-weight="700" font-stretch="normal" font-size="83" text-anchor="start" direction="ltr" writing-mode="lr-tb" unicode-bidi="normal" text-decoration="none" transform="matrix(1 0 0 1 1668.58 1079)">unicycler</text><path d="M933.5 2062.17C933.5 2048.54 944.544 2037.5 958.167 2037.5L1240.83 2037.5C1254.46 2037.5 1265.5 2048.54 1265.5 2062.17L1265.5 2160.83C1265.5 2174.46 1254.46 2185.5 1240.83 2185.5L958.167 2185.5C944.544 2185.5 933.5 2174.46 933.5 2160.83Z" stroke="#075353" stroke-width="3.4375" stroke-linecap="butt" stroke-linejoin="round" stroke-miterlimit="10" stroke-opacity="1" fill="none" fill-rule="evenodd"/><text fill="#000000" fill-opacity="1" font-family="Avenir Book,Avenir Book_MSFontService,sans-serif" font-style="normal" font-variant="normal" font-weight="700" font-stretch="normal" font-size="83" text-anchor="start" direction="ltr" writing-mode="lr-tb" unicode-bidi="normal" text-decoration="none" transform="matrix(1 0 0 1 972.758 2136)">snippy</text><path d="M866.5 1255.17C866.5 1241.54 877.544 1230.5 891.167 1230.5L1303.83 1230.5C1317.46 1230.5 1328.5 1241.54 1328.5 1255.17L1328.5 1353.83C1328.5 1367.46 1317.46 1378.5 1303.83 1378.5L891.167 1378.5C877.544 1378.5 866.5 1367.46 866.5 1353.83Z" stroke="#075353" stroke-width="3.4375" stroke-linecap="butt" stroke-linejoin="round" stroke-miterlimit="10" stroke-opacity="1" fill="none" fill-rule="evenodd"/><text fill="#000000" fill-opacity="1" font-family="Avenir Book,Avenir Book_MSFontService,sans-serif" font-style="normal" font-variant="normal" font-weight="700" font-stretch="normal" font-size="83" text-anchor="start" direction="ltr" writing-mode="lr-tb" unicode-bidi="normal" text-decoration="none" transform="matrix(1 0 0 1 906.605 1329)">minimap2</text><path d="M1271.5 1636.17C1271.5 1622.54 1282.54 1611.5 1296.17 1611.5L1670.83 1611.5C1684.46 1611.5 1695.5 1622.54 1695.5 1636.17L1695.5 1734.83C1695.5 1748.46 1684.46 1759.5 1670.83 1759.5L1296.17 1759.5C1282.54 1759.5 1271.5 1748.46 1271.5 1734.83Z" stroke="#075353" stroke-width="3.4375" stroke-linecap="butt" stroke-linejoin="round" stroke-miterlimit="10" stroke-opacity="1" fill="none" fill-rule="evenodd"/><text fill="#000000" fill-opacity="1" font-family="Avenir Book,Avenir Book_MSFontService,sans-serif" font-style="normal" font-variant="normal" font-weight="700" font-stretch="normal" font-size="83" text-anchor="start" direction="ltr" writing-mode="lr-tb" unicode-bidi="normal" text-decoration="none" transform="matrix(1 0 0 1 1311.53 1710)">samtools</text><path d="M2241.5 487.167C2241.5 473.544 2252.54 462.5 2266.17 462.5L2632.83 462.5C2646.46 462.5 2657.5 473.544 2657.5 487.167L2657.5 585.833C2657.5 599.456 2646.46 610.5 2632.83 610.5L2266.17 610.5C2252.54 610.5 2241.5 599.456 2241.5 585.833Z" stroke="#075353" stroke-width="3.4375" stroke-linecap="butt" stroke-linejoin="round" stroke-miterlimit="10" stroke-opacity="1" fill="none" fill-rule="evenodd"/><text fill="#000000" fill-opacity="1" font-family="Avenir Book,Avenir Book_MSFontService,sans-serif" font-style="normal" font-variant="normal" font-weight="700" font-stretch="normal" font-size="83" text-anchor="start" direction="ltr" writing-mode="lr-tb" unicode-bidi="normal" text-decoration="none" transform="matrix(1 0 0 1 2318.83 561)">checkv</text><path d="M2052.5 1152C2052.5 1138.47 2063.47 1127.5 2077 1127.5L2403 1127.5C2416.53 1127.5 2427.5 1138.47 2427.5 1152L2427.5 1250C2427.5 1263.53 2416.53 1274.5 2403 1274.5L2077 1274.5C2063.47 1274.5 2052.5 1263.53 2052.5 1250Z" stroke="#075353" stroke-width="3.4375" stroke-linecap="butt" stroke-linejoin="round" stroke-miterlimit="10" stroke-opacity="1" fill="none" fill-rule="evenodd"/><text fill="#000000" fill-opacity="1" font-family="Avenir Book,Avenir Book_MSFontService,sans-serif" font-style="normal" font-variant="normal" font-weight="700" font-stretch="normal" font-size="83" text-anchor="start" direction="ltr" writing-mode="lr-tb" unicode-bidi="normal" text-decoration="none" transform="matrix(1 0 0 1 2092.53 1225)">checkm</text><path d="M1759.5 487.167C1759.5 473.544 1770.54 462.5 1784.17 462.5L2151.83 462.5C2165.46 462.5 2176.5 473.544 2176.5 487.167L2176.5 585.833C2176.5 599.456 2165.46 610.5 2151.83 610.5L1784.17 610.5C1770.54 610.5 1759.5 599.456 1759.5 585.833Z" stroke="#075353" stroke-width="3.4375" stroke-linecap="butt" stroke-linejoin="round" stroke-miterlimit="10" stroke-opacity="1" fill="none" fill-rule="evenodd"/><text fill="#000000" fill-opacity="1" font-family="Avenir Book,Avenir Book_MSFontService,sans-serif" font-style="normal" font-variant="normal" font-weight="700" font-stretch="normal" font-size="83" text-anchor="start" direction="ltr" writing-mode="lr-tb" unicode-bidi="normal" text-decoration="none" transform="matrix(1 0 0 1 1799.42 561)">plasclass</text><path d="M2873.5 1038C2873.5 1024.47 2884.47 1013.5 2898 1013.5L3189 1013.5C3202.53 1013.5 3213.5 1024.47 3213.5 1038L3213.5 1136C3213.5 1149.53 3202.53 1160.5 3189 1160.5L2898 1160.5C2884.47 1160.5 2873.5 1149.53 2873.5 1136Z" stroke="#075353" stroke-width="3.4375" stroke-linecap="butt" stroke-linejoin="round" stroke-miterlimit="10" stroke-opacity="1" fill="none" fill-rule="evenodd"/><text fill="#000000" fill-opacity="1" font-family="Avenir Book,Avenir Book_MSFontService,sans-serif" font-style="normal" font-variant="normal" font-weight="700" font-stretch="normal" font-size="83" text-anchor="start" direction="ltr" writing-mode="lr-tb" unicode-bidi="normal" text-decoration="none" transform="matrix(1 0 0 1 2913.68 1111)">prokka</text><path d="M3043.5 125.167C3043.5 111.544 3054.54 100.5 3068.17 100.5L3450.83 100.5C3464.46 100.5 3475.5 111.544 3475.5 125.167L3475.5 223.833C3475.5 237.456 3464.46 248.5 3450.83 248.5L3068.17 248.5C3054.54 248.5 3043.5 237.456 3043.5 223.833Z" stroke="#075353" stroke-width="3.4375" stroke-linecap="butt" stroke-linejoin="round" stroke-miterlimit="10" stroke-opacity="1" fill="none" fill-rule="evenodd"/><text fill="#000000" fill-opacity="1" font-family="Avenir Book,Avenir Book_MSFontService,sans-serif" font-style="normal" font-variant="normal" font-weight="700" font-stretch="normal" font-size="83" text-anchor="start" direction="ltr" writing-mode="lr-tb" unicode-bidi="normal" text-decoration="none" transform="matrix(1 0 0 1 3083.29 199)">pharokka</text><path d="M3069.5 635.167C3069.5 621.544 3080.54 610.5 3094.17 610.5L3383.83 610.5C3397.46 610.5 3408.5 621.544 3408.5 635.167L3408.5 733.833C3408.5 747.456 3397.46 758.5 3383.83 758.5L3094.17 758.5C3080.54 758.5 3069.5 747.456 3069.5 733.833Z" stroke="#075353" stroke-width="3.4375" stroke-linecap="butt" stroke-linejoin="round" stroke-miterlimit="10" stroke-opacity="1" fill="none" fill-rule="evenodd"/><text fill="#000000" fill-opacity="1" font-family="Avenir Book,Avenir Book_MSFontService,sans-serif" font-style="normal" font-variant="normal" font-weight="700" font-stretch="normal" font-size="83" text-anchor="start" direction="ltr" writing-mode="lr-tb" unicode-bidi="normal" text-decoration="none" transform="matrix(1 0 0 1 3108.75 709)">prokka</text><path d="M1046 953 1046.79 1001.98" stroke="#075353" stroke-width="2.29167" stroke-linecap="butt" stroke-linejoin="miter" stroke-miterlimit="8" stroke-opacity="1" fill="none" fill-rule="evenodd"/><path d="M0 0 1.1581 62.9938" stroke="#075353" stroke-width="2.29167" stroke-linecap="butt" stroke-linejoin="miter" stroke-miterlimit="8" stroke-opacity="1" fill="none" fill-rule="evenodd" transform="matrix(-1 0 0 1 1444.16 786)"/><path d="M0 0 1.21512 27.1362" stroke="#075353" stroke-width="2.29167" stroke-linecap="butt" stroke-linejoin="miter" stroke-miterlimit="8" stroke-opacity="1" fill="none" fill-rule="evenodd" transform="matrix(-1 0 0 1 1839.22 953)"/><path d="M2236 953 2239.53 1126.3" stroke="#075353" stroke-width="2.29167" stroke-linecap="butt" stroke-linejoin="miter" stroke-miterlimit="8" stroke-opacity="1" fill="none" fill-rule="evenodd"/><path d="M1968 610 2199.37 864.888" stroke="#075353" stroke-width="2.29167" stroke-linecap="butt" stroke-linejoin="miter" stroke-miterlimit="8" stroke-opacity="1" fill="none" fill-rule="evenodd"/><path d="M0 0 1.38944 89.9344" stroke="#075353" stroke-width="2.29167" stroke-linecap="butt" stroke-linejoin="miter" stroke-miterlimit="8" stroke-opacity="1" fill="none" fill-rule="evenodd" transform="matrix(-1 0 0 1 3259.39 248)"/><path d="M3238 758 3240.33 839.67" stroke="#075353" stroke-width="2.29167" stroke-linecap="butt" stroke-linejoin="miter" stroke-miterlimit="8" stroke-opacity="1" fill="none" fill-rule="evenodd"/><path d="M3067.91 1438.42 3043 1160" stroke="#075353" stroke-width="2.29167" stroke-linecap="butt" stroke-linejoin="miter" stroke-miterlimit="8" stroke-opacity="1" fill="none" fill-rule="evenodd"/><path d="M1099 901 1390.78 901" stroke="#008080" stroke-width="32.0833" stroke-linecap="round" stroke-linejoin="round" stroke-miterlimit="10" stroke-opacity="1" fill="none" fill-rule="evenodd"/><path d="M1495 901 1786.78 901" stroke="#008080" stroke-width="32.0833" stroke-linecap="round" stroke-linejoin="round" stroke-miterlimit="10" stroke-opacity="1" fill="none" fill-rule="evenodd"/><path d="M1892 901 2183.78 901" stroke="#008080" stroke-width="32.0833" stroke-linecap="round" stroke-linejoin="round" stroke-miterlimit="10" stroke-opacity="1" fill="none" fill-rule="evenodd"/><path d="M2288 901 2601.15 901" stroke="#008080" stroke-width="32.0833" stroke-linecap="round" stroke-linejoin="round" stroke-miterlimit="10" stroke-opacity="1" fill="none" fill-rule="evenodd"/><path d="M1391 901C1391 872.281 1414.28 849 1443 849 1471.72 849 1495 872.281 1495 901 1495 929.719 1471.72 953 1443 953 1414.28 953 1391 929.719 1391 901Z" fill="#075353" fill-rule="evenodd" fill-opacity="1"/><text fill="#FFFFFF" fill-opacity="1" font-family="Calibri,Calibri_MSFontService,sans-serif" font-style="normal" font-variant="normal" font-weight="400" font-stretch="normal" font-size="83" text-anchor="start" direction="ltr" writing-mode="lr-tb" unicode-bidi="normal" text-decoration="none" transform="matrix(1 0 0 1 1422.05 929)">2</text><path d="M1787 901C1787 872.281 1810.51 849 1839.5 849 1868.49 849 1892 872.281 1892 901 1892 929.719 1868.49 953 1839.5 953 1810.51 953 1787 929.719 1787 901Z" fill="#075353" fill-rule="evenodd" fill-opacity="1"/><text fill="#FFFFFF" fill-opacity="1" font-family="Calibri,Calibri_MSFontService,sans-serif" font-style="normal" font-variant="normal" font-weight="400" font-stretch="normal" font-size="83" text-anchor="start" direction="ltr" writing-mode="lr-tb" unicode-bidi="normal" text-decoration="none" transform="matrix(1 0 0 1 1818.59 929)">3</text><path d="M2184 901C2184 872.281 2207.28 849 2236 849 2264.72 849 2288 872.281 2288 901 2288 929.719 2264.72 953 2236 953 2207.28 953 2184 929.719 2184 901Z" fill="#075353" fill-rule="evenodd" fill-opacity="1"/><text fill="#FFFFFF" fill-opacity="1" font-family="Calibri,Calibri_MSFontService,sans-serif" font-style="normal" font-variant="normal" font-weight="400" font-stretch="normal" font-size="83" text-anchor="start" direction="ltr" writing-mode="lr-tb" unicode-bidi="normal" text-decoration="none" transform="matrix(1 0 0 1 2215.13 929)">4</text><path d="M0 0 498.958 511.558" stroke="#00C259" stroke-width="32.0833" stroke-linecap="round" stroke-linejoin="round" stroke-miterlimit="10" stroke-opacity="1" fill="none" fill-rule="evenodd" transform="matrix(1 0 0 -1 2706 901.559)"/><path d="M0 0 481.795 9.95089" stroke="#00DBA0" stroke-width="32.0833" stroke-linecap="round" stroke-linejoin="round" stroke-miterlimit="10" stroke-opacity="1" fill="none" fill-rule="evenodd" transform="matrix(1 0 0 -1 2706 900.951)"/><path d="M2630 886 2890.16 1393.23" stroke="#00C0C0" stroke-width="32.0833" stroke-linecap="round" stroke-linejoin="round" stroke-miterlimit="10" stroke-opacity="1" fill="none" fill-rule="evenodd"/><path d="M2602 901C2602 872.281 2625.28 849 2654 849 2682.72 849 2706 872.281 2706 901 2706 929.719 2682.72 953 2654 953 2625.28 953 2602 929.719 2602 901Z" fill="#075353" fill-rule="evenodd" fill-opacity="1"/><text fill="#FFFFFF" fill-opacity="1" font-family="Calibri,Calibri_MSFontService,sans-serif" font-style="normal" font-variant="normal" font-weight="400" font-stretch="normal" font-size="83" text-anchor="start" direction="ltr" writing-mode="lr-tb" unicode-bidi="normal" text-decoration="none" transform="matrix(1 0 0 1 2633.04 929)">8</text><path d="M3120 1387 3340.78 1387" stroke="#00C0C0" stroke-width="32.0833" stroke-linecap="round" stroke-linejoin="round" stroke-miterlimit="10" stroke-opacity="1" fill="none" fill-rule="evenodd"/><path d="M3238.5 1038.17C3238.5 1024.54 3249.54 1013.5 3263.17 1013.5L3552.83 1013.5C3566.46 1013.5 3577.5 1024.54 3577.5 1038.17L3577.5 1136.83C3577.5 1150.46 3566.46 1161.5 3552.83 1161.5L3263.17 1161.5C3249.54 1161.5 3238.5 1150.46 3238.5 1136.83Z" stroke="#075353" stroke-width="3.4375" stroke-linecap="butt" stroke-linejoin="round" stroke-miterlimit="10" stroke-opacity="1" fill="none" fill-rule="evenodd"/><text fill="#000000" fill-opacity="1" font-family="Avenir Book,Avenir Book_MSFontService,sans-serif" font-style="normal" font-variant="normal" font-weight="700" font-stretch="normal" font-size="83" text-anchor="start" direction="ltr" writing-mode="lr-tb" unicode-bidi="normal" text-decoration="none" transform="matrix(1 0 0 1 3278.04 1112)">gtdbtk</text><path d="M0 0 13.9135 173.976" stroke="#075353" stroke-width="2.29167" stroke-linecap="butt" stroke-linejoin="miter" stroke-miterlimit="8" stroke-opacity="1" fill="none" fill-rule="evenodd" transform="matrix(1 0 0 -1 3394 1334.98)"/><path d="M2896 1402 3207.6 1871.99" stroke="#00C0C0" stroke-width="32.0833" stroke-linecap="round" stroke-linejoin="round" stroke-miterlimit="10" stroke-opacity="1" fill="none" fill-rule="evenodd"/><path d="M566 1655.96 697.875 1655.96C706.735 1655.96 713.917 1663.14 713.917 1672 713.917 1680.86 706.734 1688.04 697.875 1688.04L566 1688.04C557.141 1688.04 549.958 1680.86 549.958 1672 549.959 1663.14 557.141 1655.96 566 1655.96ZM681.833 1623.88 778.083 1672 681.833 1720.13Z" fill="#008080" fill-rule="nonzero" fill-opacity="0.239216"/><path d="M1099 1969 1099 2037.49" stroke="#075353" stroke-width="2.29167" stroke-linecap="butt" stroke-linejoin="miter" stroke-miterlimit="8" stroke-opacity="1" fill="none" fill-rule="evenodd"/><path d="M810 882.958 901.185 882.958C910.045 882.958 917.227 890.141 917.227 899 917.227 907.86 910.045 915.042 901.185 915.042L810 915.042C801.14 915.042 793.958 907.859 793.958 899 793.958 890.14 801.14 882.958 810 882.958ZM885.144 850.875 981.393 899 885.143 947.125Z" fill="#008080" fill-rule="nonzero" fill-opacity="0.239216"/><path d="M994 901C994 872.281 1017.51 849 1046.5 849 1075.49 849 1099 872.281 1099 901 1099 929.719 1075.49 953 1046.5 953 1017.51 953 994 929.719 994 901Z" fill="#075353" fill-rule="evenodd" fill-opacity="1"/><text fill="#FFFFFF" fill-opacity="1" font-family="Calibri,Calibri_MSFontService,sans-serif" font-style="normal" font-variant="normal" font-weight="400" font-stretch="normal" font-size="83" text-anchor="start" direction="ltr" writing-mode="lr-tb" unicode-bidi="normal" text-decoration="none" transform="matrix(1 0 0 1 1025.5 929)">1</text><path d="M0 0 149.168 146.474" stroke="#70BDA6" stroke-width="32.0833" stroke-linecap="round" stroke-linejoin="round" stroke-miterlimit="10" stroke-opacity="1" fill="none" fill-rule="evenodd" transform="matrix(-1 0 0 1 1046.17 1486)"/><path d="M636.076 1261.31 777.696 1520.42 777.696 1520.42C781.945 1528.19 779.088 1537.94 771.313 1542.19 763.539 1546.44 753.792 1543.58 749.543 1535.81L749.543 1535.81 607.923 1276.69C603.674 1268.92 606.532 1259.17 614.306 1254.92 622.08 1250.67 631.827 1253.53 636.076 1261.31ZM798.155 1490.95 802.088 1598.49 713.697 1537.12Z" fill="#008080" fill-rule="nonzero" fill-opacity="0.239216"/><path d="M0 0 280.432 0.000360892" stroke="#70BDA6" stroke-width="32.0833" stroke-linecap="round" stroke-linejoin="round" stroke-miterlimit="10" stroke-opacity="1" fill="none" fill-rule="evenodd" transform="matrix(-1 0 0 1 1431.43 1486)"/><path d="M1046 1486C1046 1457.28 1069.51 1434 1098.5 1434 1127.49 1434 1151 1457.28 1151 1486 1151 1514.72 1127.49 1538 1098.5 1538 1069.51 1538 1046 1514.72 1046 1486Z" fill="#075353" fill-rule="evenodd" fill-opacity="1"/><text fill="#FFFFFF" fill-opacity="1" font-family="Calibri,Calibri_MSFontService,sans-serif" font-style="normal" font-variant="normal" font-weight="400" font-stretch="normal" font-size="64" text-anchor="start" direction="ltr" writing-mode="lr-tb" unicode-bidi="normal" text-decoration="none" transform="matrix(1 0 0 1 1066.11 1507)">15</text><path d="M1097 1378 1098.32 1434.1" stroke="#075353" stroke-width="2.29167" stroke-linecap="butt" stroke-linejoin="miter" stroke-miterlimit="8" stroke-opacity="1" fill="none" fill-rule="evenodd"/><path d="M2.97068e-05-16.0417 194.882-16.0413C203.741-16.0413 210.924-8.85918 210.924 0.000390599 210.924 8.85996 203.741 16.042 194.882 16.042L-2.97068e-05 16.0417C-8.8596 16.0416-16.0417 8.85954-16.0417-2.97068e-05-16.0416-8.8596-8.85954-16.0417 2.97068e-05-16.0417ZM-8.91204e-05 48.125C-26.5788 48.125-48.125 26.5786-48.125-8.91204e-05-48.125-26.5788-26.5786-48.125 8.91204e-05-48.125 26.5788-48.125 48.125-26.5786 48.125 8.91204e-05 48.125 26.5788 26.5786 48.125-8.91204e-05 48.125Z" fill="#70BDA6" fill-rule="nonzero" fill-opacity="1" transform="matrix(-1 0 0 1 1730.88 1486)"/><path d="M1432 1486C1432 1457.28 1455.28 1434 1484 1434 1512.72 1434 1536 1457.28 1536 1486 1536 1514.72 1512.72 1538 1484 1538 1455.28 1538 1432 1514.72 1432 1486Z" fill="#075353" fill-rule="evenodd" fill-opacity="1"/><text fill="#FFFFFF" fill-opacity="1" font-family="Calibri,Calibri_MSFontService,sans-serif" font-style="normal" font-variant="normal" font-weight="400" font-stretch="normal" font-size="64" text-anchor="start" direction="ltr" writing-mode="lr-tb" unicode-bidi="normal" text-decoration="none" transform="matrix(1 0 0 1 1451.3 1507)">16</text><path d="M0 0 0.940125 73.098" stroke="#075353" stroke-width="2.29167" stroke-linecap="butt" stroke-linejoin="miter" stroke-miterlimit="8" stroke-opacity="1" fill="none" fill-rule="evenodd" transform="matrix(-1 0 0 1 1483.94 1538)"/><path d="M1061.51 1880.32 897 1706" stroke="#56B2C1" stroke-width="32.0833" stroke-linecap="round" stroke-linejoin="round" stroke-miterlimit="10" stroke-opacity="1" fill="none" fill-rule="evenodd"/><path d="M808 1669C808 1640.28 831.505 1617 860.5 1617 889.495 1617 913 1640.28 913 1669 913 1697.72 889.495 1721 860.5 1721 831.505 1721 808 1697.72 808 1669Z" fill="#075353" fill-rule="evenodd" fill-opacity="1"/><text fill="#FFFFFF" fill-opacity="1" font-family="Calibri,Calibri_MSFontService,sans-serif" font-style="normal" font-variant="normal" font-weight="400" font-stretch="normal" font-size="64" text-anchor="start" direction="ltr" writing-mode="lr-tb" unicode-bidi="normal" text-decoration="none" transform="matrix(1 0 0 1 827.521 1691)">14</text><path d="M0 0 175.801 254.888" stroke="#075353" stroke-width="2.29167" stroke-linecap="butt" stroke-linejoin="miter" stroke-miterlimit="8" stroke-opacity="1" fill="none" fill-rule="evenodd" transform="matrix(-1 0 0 1 2448.8 610)"/><path d="M3386.5 1628C3386.5 1614.47 3397.47 1603.5 3411 1603.5L3764 1603.5C3777.53 1603.5 3788.5 1614.47 3788.5 1628L3788.5 1726C3788.5 1739.53 3777.53 1750.5 3764 1750.5L3411 1750.5C3397.47 1750.5 3386.5 1739.53 3386.5 1726Z" stroke="#075353" stroke-width="3.4375" stroke-linecap="butt" stroke-linejoin="round" stroke-miterlimit="10" stroke-opacity="1" fill="none" fill-rule="evenodd"/><text fill="#000000" fill-opacity="1" font-family="Avenir Book,Avenir Book_MSFontService,sans-serif" font-style="normal" font-variant="normal" font-weight="700" font-stretch="normal" font-size="83" text-anchor="start" direction="ltr" writing-mode="lr-tb" unicode-bidi="normal" text-decoration="none" transform="matrix(1 0 0 1 3425.78 1701)">prodigal</text><path d="M3587 1750 3844.62 1834.88" stroke="#075353" stroke-width="2.29167" stroke-linecap="butt" stroke-linejoin="miter" stroke-miterlimit="8" stroke-opacity="1" fill="none" fill-rule="evenodd"/><path d="M3821.5 1628C3821.5 1614.47 3832.47 1603.5 3846 1603.5L4199 1603.5C4212.53 1603.5 4223.5 1614.47 4223.5 1628L4223.5 1726C4223.5 1739.53 4212.53 1750.5 4199 1750.5L3846 1750.5C3832.47 1750.5 3821.5 1739.53 3821.5 1726Z" stroke="#075353" stroke-width="3.4375" stroke-linecap="butt" stroke-linejoin="round" stroke-miterlimit="10" stroke-opacity="1" fill="none" fill-rule="evenodd"/><text fill="#000000" fill-opacity="1" font-family="Avenir Book,Avenir Book_MSFontService,sans-serif" font-style="normal" font-variant="normal" font-weight="700" font-stretch="normal" font-size="83" text-anchor="start" direction="ltr" writing-mode="lr-tb" unicode-bidi="normal" text-decoration="none" transform="matrix(1 0 0 1 3929.97 1701)">blast</text><path d="M0 0 177.332 84.8822" stroke="#075353" stroke-width="2.29167" stroke-linecap="butt" stroke-linejoin="miter" stroke-miterlimit="8" stroke-opacity="1" fill="none" fill-rule="evenodd" transform="matrix(-1 0 0 1 4022.33 1750)"/><path d="M3359.5 1860.17C3359.5 1846.54 3370.54 1835.5 3384.17 1835.5L4305.83 1835.5C4319.46 1835.5 4330.5 1846.54 4330.5 1860.17L4330.5 1958.83C4330.5 1972.46 4319.46 1983.5 4305.83 1983.5L3384.17 1983.5C3370.54 1983.5 3359.5 1972.46 3359.5 1958.83Z" stroke="#075353" stroke-width="3.4375" stroke-linecap="butt" stroke-linejoin="round" stroke-miterlimit="10" stroke-opacity="1" fill="none" fill-rule="evenodd"/><text fill="#000000" fill-opacity="1" font-family="Avenir Book,Avenir Book_MSFontService,sans-serif" font-style="normal" font-variant="normal" font-weight="700" font-stretch="normal" font-size="83" text-anchor="start" direction="ltr" writing-mode="lr-tb" unicode-bidi="normal" text-decoration="none" transform="matrix(1 0 0 1 3414.1 1934)">fromAssembly2feature</text><path d="M0 0 61.3968 0.0653215" stroke="#075353" stroke-width="2.29167" stroke-linecap="butt" stroke-linejoin="miter" stroke-miterlimit="8" stroke-opacity="1" fill="none" fill-rule="evenodd" transform="matrix(-1 0 0 1 3358.4 1909)"/><path d="M3000 1875.96 3101.49 1875.96C3110.35 1875.96 3117.53 1883.14 3117.53 1892 3117.53 1900.86 3110.35 1908.04 3101.49 1908.04L3000 1908.04C2991.14 1908.04 2983.96 1900.86 2983.96 1892 2983.96 1883.14 2991.14 1875.96 3000 1875.96ZM3085.45 1843.88 3181.7 1892 3085.45 1940.13Z" fill="#008080" fill-rule="nonzero" fill-opacity="0.239216"/><path d="M9.98029e-06-16.0417 580.075-16.0413C588.935-16.0413 596.117-8.8592 596.117 0.000370873 596.117 8.85994 588.935 16.042 580.075 16.042L-9.98029e-06 16.0417C-8.85958 16.0417-16.0417 8.85956-16.0417-9.98029e-06-16.0417-8.85958-8.85956-16.0417 9.98029e-06-16.0417ZM-2.99409e-05 48.125C-26.5787 48.125-48.125 26.5787-48.125-2.99409e-05-48.125-26.5787-26.5787-48.125 2.99409e-05-48.125 26.5787-48.125 48.125-26.5787 48.125 2.99409e-05 48.125 26.5787 26.5787 48.125-2.99409e-05 48.125Z" fill="#56B2C1" fill-rule="nonzero" fill-opacity="1" transform="matrix(-1 0 0 1 1731.07 1915)"/><path d="M1046 1917C1046 1888.28 1069.51 1865 1098.5 1865 1127.49 1865 1151 1888.28 1151 1917 1151 1945.72 1127.49 1969 1098.5 1969 1069.51 1969 1046 1945.72 1046 1917Z" fill="#075353" fill-rule="evenodd" fill-opacity="1"/><text fill="#FFFFFF" fill-opacity="1" font-family="Calibri,Calibri_MSFontService,sans-serif" font-style="normal" font-variant="normal" font-weight="400" font-stretch="normal" font-size="64" text-anchor="start" direction="ltr" writing-mode="lr-tb" unicode-bidi="normal" text-decoration="none" transform="matrix(1 0 0 1 1066.11 1938)">17</text><path d="M3310 373.958 3582.83 373.959C3591.69 373.959 3598.88 381.141 3598.88 390.001 3598.88 398.86 3591.69 406.042 3582.83 406.042L3310 406.042C3301.14 406.042 3293.96 398.86 3293.96 390 3293.96 381.141 3301.14 373.958 3310 373.958ZM3582.83 341.876C3609.41 341.876 3630.96 363.422 3630.96 390.001 3630.96 416.579 3609.41 438.126 3582.83 438.126 3556.26 438.125 3534.71 416.579 3534.71 390 3534.71 363.422 3556.26 341.875 3582.83 341.876Z" fill="#00C259" fill-rule="nonzero" fill-opacity="1"/><path d="M3205 390C3205 361.281 3228.51 338 3257.5 338 3286.5 338 3310 361.281 3310 390 3310 418.719 3286.5 442 3257.5 442 3228.51 442 3205 418.719 3205 390Z" fill="#075353" fill-rule="evenodd" fill-opacity="1"/><text fill="#FFFFFF" fill-opacity="1" font-family="Calibri,Calibri_MSFontService,sans-serif" font-style="normal" font-variant="normal" font-weight="400" font-stretch="normal" font-size="83" text-anchor="start" direction="ltr" writing-mode="lr-tb" unicode-bidi="normal" text-decoration="none" transform="matrix(1 0 0 1 3236.76 417)">9</text><path d="M3293 874.958 3565.83 874.959C3574.69 874.959 3581.88 882.141 3581.88 891 3581.88 899.86 3574.69 907.042 3565.83 907.042L3293 907.042C3284.14 907.042 3276.96 899.86 3276.96 891 3276.96 882.14 3284.14 874.958 3293 874.958ZM3565.83 842.875C3592.41 842.875 3613.96 864.422 3613.96 891 3613.96 917.579 3592.41 939.125 3565.83 939.125 3539.26 939.125 3517.71 917.579 3517.71 891 3517.71 864.422 3539.26 842.875 3565.83 842.875Z" fill="#00DBA0" fill-rule="nonzero" fill-opacity="1"/><path d="M3446 1370.96 3565.78 1370.96C3574.64 1370.96 3581.83 1378.14 3581.83 1387 3581.83 1395.86 3574.64 1403.04 3565.78 1403.04L3446 1403.04C3437.14 1403.04 3429.96 1395.86 3429.96 1387 3429.96 1378.14 3437.14 1370.96 3446 1370.96ZM3565.78 1338.88C3592.36 1338.88 3613.91 1360.42 3613.91 1387 3613.91 1413.58 3592.36 1435.13 3565.78 1435.13 3539.21 1435.13 3517.66 1413.58 3517.66 1387 3517.66 1360.42 3539.21 1338.88 3565.78 1338.88Z" fill="#00C0C0" fill-rule="nonzero" fill-opacity="1"/><path d="M3188 891C3188 862.281 3211.51 839 3240.5 839 3269.5 839 3293 862.281 3293 891 3293 919.719 3269.5 943 3240.5 943 3211.51 943 3188 919.719 3188 891Z" fill="#075353" fill-rule="evenodd" fill-opacity="1"/><text fill="#FFFFFF" fill-opacity="1" font-family="Calibri,Calibri_MSFontService,sans-serif" font-style="normal" font-variant="normal" font-weight="400" font-stretch="normal" font-size="64" text-anchor="start" direction="ltr" writing-mode="lr-tb" unicode-bidi="normal" text-decoration="none" transform="matrix(1 0 0 1 3207.85 913)">10</text><path d="M3341 1387C3341 1358.28 3364.51 1335 3393.5 1335 3422.5 1335 3446 1358.28 3446 1387 3446 1415.72 3422.5 1439 3393.5 1439 3364.51 1439 3341 1415.72 3341 1387Z" fill="#075353" fill-rule="evenodd" fill-opacity="1"/><text fill="#FFFFFF" fill-opacity="1" font-family="Calibri,Calibri_MSFontService,sans-serif" font-style="normal" font-variant="normal" font-weight="400" font-stretch="normal" font-size="64" text-anchor="start" direction="ltr" writing-mode="lr-tb" unicode-bidi="normal" text-decoration="none" transform="matrix(1 0 0 1 3360.9 1410)">12</text><text fill="#000000" fill-opacity="1" font-family="Avenir Book,Avenir Book_MSFontService,sans-serif" font-style="normal" font-variant="normal" font-weight="400" font-stretch="normal" font-size="83" text-anchor="start" direction="ltr" writing-mode="lr-tb" unicode-bidi="normal" text-decoration="none" transform="matrix(1 0 0 1 188.874 621)">Short reads</text><g><g><g><path d="M177.618 458.404C177.618 452.925 182.061 448.482 187.542 448.482L403.797 448.482C409.276 448.482 413.719 452.925 413.719 458.404L413.719 768.087C413.719 773.565 409.276 778.009 403.797 778.009L187.542 778.009C182.061 778.009 177.618 773.565 177.618 768.087Z" stroke="#000000" stroke-width="12.0329" stroke-linecap="butt" stroke-linejoin="miter" stroke-miterlimit="8" stroke-opacity="1" fill="none" fill-rule="evenodd" transform="matrix(1.00002 0 0 1 3863.05 -322.708)"/><path d="M177.618 452.074C177.618 450.09 179.227 448.482 181.21 448.482L260.935 448.482C262.918 448.482 264.527 450.09 264.527 452.074L264.527 530.349C264.527 532.334 262.918 533.942 260.935 533.942L181.21 533.942C179.227 533.942 177.618 532.334 177.618 530.349Z" stroke="#000000" stroke-width="12.0329" stroke-linecap="butt" stroke-linejoin="miter" stroke-miterlimit="8" stroke-opacity="1" fill="none" fill-rule="evenodd" transform="matrix(1.00002 0 0 1 3863.05 -322.708)"/><path d="M0 0 86.9081 85.7254" stroke="#000000" stroke-width="11.6179" stroke-linecap="butt" stroke-linejoin="miter" stroke-miterlimit="8" stroke-opacity="1" fill="none" fill-rule="evenodd" transform="matrix(1.00002 0 0 -1 4040.49 209.507)"/><path d="M123.181 491.473 218.106 397.887 260.699 441.091 165.774 534.677Z" stroke="#FFFFFF" stroke-width="1.6597" stroke-linecap="butt" stroke-linejoin="miter" stroke-miterlimit="8" stroke-opacity="1" fill="#FFFFFF" fill-rule="nonzero" fill-opacity="1" transform="matrix(1.00002 0 0 1 3863.05 -322.708)"/><path d="M143.579 632.738C143.579 627.172 148.091 622.66 153.656 622.66L436.232 622.66C441.797 622.66 446.309 627.172 446.309 632.738L446.309 692.973C446.309 698.538 441.797 703.05 436.232 703.05L153.656 703.05C148.091 703.05 143.579 698.538 143.579 692.973Z" stroke="#000000" stroke-width="1.6597" stroke-linecap="butt" stroke-linejoin="miter" stroke-miterlimit="8" stroke-opacity="1" fill="#000000" fill-rule="evenodd" fill-opacity="1" transform="matrix(1.00002 0 0 1 3863.05 -322.708)"/><text fill="#FFFFFF" fill-opacity="1" font-family="Avenir Book,Avenir Book_MSFontService,sans-serif" font-style="normal" font-variant="normal" font-weight="700" font-stretch="normal" font-size="110" text-anchor="start" direction="ltr" writing-mode="lr-tb" unicode-bidi="normal" text-decoration="none" transform="matrix(0.362126 0 0 0.362117 4054.65 352)">Annotation</text></g></g></g><g><g><g><path d="M199.234 68.6163C199.234 63.1187 203.69 58.6622 209.188 58.6622L426.109 58.6622C431.605 58.6622 436.062 63.1187 436.062 68.6163L436.062 379.252C436.062 384.748 431.605 389.205 426.109 389.205L209.188 389.205C203.69 389.205 199.234 384.748 199.234 379.252Z" stroke="#000000" stroke-width="12.07" stroke-linecap="butt" stroke-linejoin="miter" stroke-miterlimit="8" stroke-opacity="1" fill="none" fill-rule="evenodd" transform="matrix(1 0 0 1.00158 3502.89 1093.45)"/><path d="M199.234 62.2804C199.234 60.2822 200.854 58.6622 202.852 58.6622L282.792 58.6622C284.79 58.6622 286.41 60.2822 286.41 62.2804L286.41 141.13C286.41 143.129 284.79 144.749 282.792 144.749L202.852 144.749C200.854 144.749 199.234 143.129 199.234 141.13Z" stroke="#000000" stroke-width="12.07" stroke-linecap="butt" stroke-linejoin="miter" stroke-miterlimit="8" stroke-opacity="1" fill="none" fill-rule="evenodd" transform="matrix(1 0 0 1.00158 3502.89 1093.45)"/><path d="M0 0 87.1761 85.9897" stroke="#000000" stroke-width="11.6537" stroke-linecap="butt" stroke-linejoin="miter" stroke-miterlimit="8" stroke-opacity="1" fill="none" fill-rule="evenodd" transform="matrix(1 0 0 -1.00158 3701.94 1236.69)"/><path d="M144.807 102.003 240.024 8.12913 282.749 51.4658 187.532 145.34Z" stroke="#FFFFFF" stroke-width="1.66482" stroke-linecap="butt" stroke-linejoin="miter" stroke-miterlimit="8" stroke-opacity="1" fill="#FFFFFF" fill-rule="nonzero" fill-opacity="1" transform="matrix(1 0 0 1.00158 3502.89 1093.45)"/><path d="M165.09 243.803C165.09 238.246 169.595 233.741 175.152 233.741L458.691 233.741C464.249 233.741 468.753 238.246 468.753 243.803L468.753 303.953C468.753 309.51 464.249 314.015 458.691 314.015L175.152 314.015C169.595 314.015 165.09 309.51 165.09 303.953Z" stroke="#000000" stroke-width="1.66482" stroke-linecap="butt" stroke-linejoin="miter" stroke-miterlimit="8" stroke-opacity="1" fill="#000000" fill-rule="evenodd" fill-opacity="1" transform="matrix(1 0 0 1.00158 3502.89 1093.45)"/><text fill="#FFFFFF" fill-opacity="1" font-family="Avenir Book,Avenir Book_MSFontService,sans-serif" font-style="normal" font-variant="normal" font-weight="700" font-stretch="normal" font-size="110" text-anchor="start" direction="ltr" writing-mode="lr-tb" unicode-bidi="normal" text-decoration="none" transform="matrix(0.363234 0 0 0.363806 3694.93 1380)">Chromosome</text></g></g></g><g><g><g><path d="M1154.54 106.755C1154.54 101.258 1158.99 96.8018 1164.49 96.8018L1381.41 96.8018C1386.91 96.8018 1391.37 101.258 1391.37 106.755L1391.37 417.392C1391.37 422.887 1386.91 427.344 1381.41 427.344L1164.49 427.344C1158.99 427.344 1154.54 422.887 1154.54 417.392Z" stroke="#000000" stroke-width="12.07" stroke-linecap="butt" stroke-linejoin="miter" stroke-miterlimit="8" stroke-opacity="1" fill="none" fill-rule="evenodd" transform="matrix(1 0 0 1.00064 2549.03 27.2934)"/><path d="M1154.54 100.42C1154.54 98.4218 1156.16 96.8018 1158.16 96.8018L1238.1 96.8018C1240.09 96.8018 1241.71 98.4218 1241.71 100.42L1241.71 179.27C1241.71 181.268 1240.09 182.888 1238.1 182.888L1158.16 182.888C1156.16 182.888 1154.54 181.268 1154.54 179.27Z" stroke="#000000" stroke-width="12.07" stroke-linecap="butt" stroke-linejoin="miter" stroke-miterlimit="8" stroke-opacity="1" fill="none" fill-rule="evenodd" transform="matrix(1 0 0 1.00064 2549.03 27.2934)"/><path d="M0 0 87.1761 85.9897" stroke="#000000" stroke-width="11.6537" stroke-linecap="butt" stroke-linejoin="miter" stroke-miterlimit="8" stroke-opacity="1" fill="none" fill-rule="evenodd" transform="matrix(1 0 0 -1.00064 3703.39 208.567)"/><path d="M1099.87 140.18 1195.09 46.3065 1237.81 89.6428 1142.59 183.517Z" stroke="#FFFFFF" stroke-width="1.66482" stroke-linecap="butt" stroke-linejoin="miter" stroke-miterlimit="8" stroke-opacity="1" fill="#FFFFFF" fill-rule="nonzero" fill-opacity="1" transform="matrix(1 0 0 1.00064 2549.03 27.2934)"/><path d="M1120.39 281.943C1120.39 276.385 1124.9 271.88 1130.46 271.88L1414 271.88C1419.55 271.88 1424.06 276.385 1424.06 281.943L1424.06 342.093C1424.06 347.65 1419.55 352.155 1414 352.155L1130.46 352.155C1124.9 352.155 1120.39 347.65 1120.39 342.093Z" stroke="#000000" stroke-width="1.66482" stroke-linecap="butt" stroke-linejoin="miter" stroke-miterlimit="8" stroke-opacity="1" fill="#000000" fill-rule="evenodd" fill-opacity="1" transform="matrix(1 0 0 1.00064 2549.03 27.2934)"/><text fill="#FFFFFF" fill-opacity="1" font-family="Avenir Book,Avenir Book_MSFontService,sans-serif" font-style="normal" font-variant="normal" font-weight="700" font-stretch="normal" font-size="110" text-anchor="start" direction="ltr" writing-mode="lr-tb" unicode-bidi="normal" text-decoration="none" transform="matrix(0.363234 0 0 0.363467 3753.75 352)">Phages</text></g></g></g><g><g><g><path d="M542.853 90.7732C542.853 85.276 547.31 80.8195 552.805 80.8195L769.728 80.8195C775.224 80.8195 779.681 85.276 779.681 90.7732L779.681 401.409C779.681 406.905 775.224 411.362 769.728 411.362L552.805 411.362C547.31 411.362 542.853 406.905 542.853 401.409Z" stroke="#000000" stroke-width="12.07" stroke-linecap="butt" stroke-linejoin="miter" stroke-miterlimit="8" stroke-opacity="1" fill="none" fill-rule="evenodd" transform="matrix(1 0 0 1.00064 3159.99 558.013)"/><path d="M542.853 84.4376C542.853 82.4395 544.473 80.8195 546.47 80.8195L626.411 80.8195C628.409 80.8195 630.029 82.4395 630.029 84.4376L630.029 163.288C630.029 165.286 628.409 166.906 626.411 166.906L546.47 166.906C544.473 166.906 542.853 165.286 542.853 163.288Z" stroke="#000000" stroke-width="12.07" stroke-linecap="butt" stroke-linejoin="miter" stroke-miterlimit="8" stroke-opacity="1" fill="none" fill-rule="evenodd" transform="matrix(1 0 0 1.00064 3159.99 558.013)"/><path d="M0 0 87.1761 85.9897" stroke="#000000" stroke-width="11.6537" stroke-linecap="butt" stroke-linejoin="miter" stroke-miterlimit="8" stroke-opacity="1" fill="none" fill-rule="evenodd" transform="matrix(1 0 0 -1.00064 3702.66 723.294)"/><path d="M488.469 124.268 583.687 30.3937 626.411 73.7302 531.193 167.604Z" stroke="#FFFFFF" stroke-width="1.66482" stroke-linecap="butt" stroke-linejoin="miter" stroke-miterlimit="8" stroke-opacity="1" fill="#FFFFFF" fill-rule="nonzero" fill-opacity="1" transform="matrix(1 0 0 1.00064 3159.99 558.013)"/><path d="M508.709 266.006C508.709 260.424 513.235 255.898 518.817 255.898L802.263 255.898C807.846 255.898 812.372 260.424 812.372 266.006L812.372 326.428C812.372 332.01 807.846 336.536 802.263 336.536L518.817 336.536C513.235 336.536 508.709 332.01 508.709 326.428Z" stroke="#000000" stroke-width="1.66482" stroke-linecap="butt" stroke-linejoin="miter" stroke-miterlimit="8" stroke-opacity="1" fill="#000000" fill-rule="evenodd" fill-opacity="1" transform="matrix(1 0 0 1.00064 3159.99 558.013)"/><text fill="#FFFFFF" fill-opacity="1" font-family="Avenir Book,Avenir Book_MSFontService,sans-serif" font-style="normal" font-variant="normal" font-weight="700" font-stretch="normal" font-size="110" text-anchor="start" direction="ltr" writing-mode="lr-tb" unicode-bidi="normal" text-decoration="none" transform="matrix(0.363234 0 0 0.363467 3739.67 867)">Plasmids</text></g></g></g><g><g><g><path d="M770.723 477.641C770.723 472.137 775.187 467.673 780.692 467.673L997.957 467.673C1003.46 467.673 1007.92 472.137 1007.92 477.641L1007.92 788.768C1007.92 794.272 1003.46 798.736 997.957 798.736L780.692 798.736C775.187 798.736 770.723 794.272 770.723 788.768Z" stroke="#000000" stroke-width="12.089" stroke-linecap="butt" stroke-linejoin="miter" stroke-miterlimit="8" stroke-opacity="1" fill="none" fill-rule="evenodd" transform="matrix(1.00147 0 0 1 1057.53 1320.9)"/><path d="M770.723 471.296C770.723 469.295 772.346 467.673 774.347 467.673L854.413 467.673C856.414 467.673 858.037 469.295 858.037 471.296L858.037 550.271C858.037 552.272 856.414 553.895 854.413 553.895L774.347 553.895C772.346 553.895 770.723 552.272 770.723 550.271Z" stroke="#000000" stroke-width="12.089" stroke-linecap="butt" stroke-linejoin="miter" stroke-miterlimit="8" stroke-opacity="1" fill="none" fill-rule="evenodd" transform="matrix(1.00147 0 0 1 1057.53 1320.9)"/><path d="M0 0 87.3135 86.1253" stroke="#000000" stroke-width="11.6721" stroke-linecap="butt" stroke-linejoin="miter" stroke-miterlimit="8" stroke-opacity="1" fill="none" fill-rule="evenodd" transform="matrix(1.00147 0 0 -1 1829.2 1873.06)"/><path d="M716.123 511.22 811.491 417.198 854.286 460.604 758.918 554.626Z" stroke="#FFFFFF" stroke-width="1.66744" stroke-linecap="butt" stroke-linejoin="miter" stroke-miterlimit="8" stroke-opacity="1" fill="#FFFFFF" fill-rule="nonzero" fill-opacity="1" transform="matrix(1.00147 0 0 1 1057.53 1320.9)"/><path d="M736.526 653.152C736.526 647.56 741.059 643.027 746.65 643.027L1030.54 643.027C1036.13 643.027 1040.67 647.56 1040.67 653.152L1040.67 713.668C1040.67 719.259 1036.13 723.792 1030.54 723.792L746.65 723.792C741.059 723.792 736.526 719.259 736.526 713.668Z" stroke="#000000" stroke-width="1.66744" stroke-linecap="butt" stroke-linejoin="miter" stroke-miterlimit="8" stroke-opacity="1" fill="#000000" fill-rule="evenodd" fill-opacity="1" transform="matrix(1.00147 0 0 1 1057.53 1320.9)"/><text fill="#FFFFFF" fill-opacity="1" font-family="Avenir Book,Avenir Book_MSFontService,sans-serif" font-style="normal" font-variant="normal" font-weight="700" font-stretch="normal" font-size="110" text-anchor="start" direction="ltr" writing-mode="lr-tb" unicode-bidi="normal" text-decoration="none" transform="matrix(0.364341 0 0 0.363806 1898.13 2016)">SNVs</text></g></g></g><g><g><g><path d="M177.618 458.404C177.618 452.925 182.061 448.482 187.542 448.482L403.796 448.482C409.275 448.482 413.718 452.925 413.718 458.404L413.718 768.086C413.718 773.565 409.275 778.008 403.796 778.008L187.542 778.008C182.061 778.008 177.618 773.565 177.618 768.086Z" stroke="#000000" stroke-width="12.0329" stroke-linecap="butt" stroke-linejoin="miter" stroke-miterlimit="8" stroke-opacity="1" fill="none" fill-rule="evenodd" transform="matrix(1.00003 0 0 1 3863.05 191.293)"/><path d="M177.618 452.074C177.618 450.089 179.226 448.482 181.21 448.482L260.934 448.482C262.918 448.482 264.526 450.089 264.526 452.074L264.526 530.349C264.526 532.333 262.918 533.941 260.934 533.941L181.21 533.941C179.226 533.941 177.618 532.333 177.618 530.349Z" stroke="#000000" stroke-width="12.0329" stroke-linecap="butt" stroke-linejoin="miter" stroke-miterlimit="8" stroke-opacity="1" fill="none" fill-rule="evenodd" transform="matrix(1.00003 0 0 1 3863.05 191.293)"/><path d="M0 0 86.908 85.7254" stroke="#000000" stroke-width="11.6179" stroke-linecap="butt" stroke-linejoin="miter" stroke-miterlimit="8" stroke-opacity="1" fill="none" fill-rule="evenodd" transform="matrix(1.00003 0 0 -1 4040.49 723.507)"/><path d="M123.181 491.472 218.105 397.887 260.699 441.091 165.774 534.676Z" stroke="#FFFFFF" stroke-width="1.6597" stroke-linecap="butt" stroke-linejoin="miter" stroke-miterlimit="8" stroke-opacity="1" fill="#FFFFFF" fill-rule="nonzero" fill-opacity="1" transform="matrix(1.00003 0 0 1 3863.05 191.293)"/><path d="M143.579 632.738C143.579 627.172 148.091 622.66 153.656 622.66L436.231 622.66C441.797 622.66 446.309 627.172 446.309 632.738L446.309 692.972C446.309 698.538 441.797 703.05 436.231 703.05L153.656 703.05C148.091 703.05 143.579 698.538 143.579 692.972Z" stroke="#000000" stroke-width="1.6597" stroke-linecap="butt" stroke-linejoin="miter" stroke-miterlimit="8" stroke-opacity="1" fill="#000000" fill-rule="evenodd" fill-opacity="1" transform="matrix(1.00003 0 0 1 3863.05 191.293)"/><text fill="#FFFFFF" fill-opacity="1" font-family="Avenir Book,Avenir Book_MSFontService,sans-serif" font-style="normal" font-variant="normal" font-weight="700" font-stretch="normal" font-size="110" text-anchor="start" direction="ltr" writing-mode="lr-tb" unicode-bidi="normal" text-decoration="none" transform="matrix(0.362126 0 0 0.362117 4054.65 866)">Annotation</text></g></g></g><g><g><g><path d="M177.618 458.404C177.618 452.925 182.061 448.482 187.542 448.482L403.797 448.482C409.276 448.482 413.719 452.925 413.719 458.404L413.719 768.087C413.719 773.565 409.276 778.009 403.797 778.009L187.542 778.009C182.061 778.009 177.618 773.565 177.618 768.087Z" stroke="#000000" stroke-width="12.0329" stroke-linecap="butt" stroke-linejoin="miter" stroke-miterlimit="8" stroke-opacity="1" fill="none" fill-rule="evenodd" transform="matrix(1.00002 0 0 1 3863.05 705.292)"/><path d="M177.618 452.074C177.618 450.09 179.227 448.482 181.21 448.482L260.935 448.482C262.918 448.482 264.527 450.09 264.527 452.074L264.527 530.349C264.527 532.334 262.918 533.942 260.935 533.942L181.21 533.942C179.227 533.942 177.618 532.334 177.618 530.349Z" stroke="#000000" stroke-width="12.0329" stroke-linecap="butt" stroke-linejoin="miter" stroke-miterlimit="8" stroke-opacity="1" fill="none" fill-rule="evenodd" transform="matrix(1.00002 0 0 1 3863.05 705.292)"/><path d="M0 0 86.9081 85.7254" stroke="#000000" stroke-width="11.6179" stroke-linecap="butt" stroke-linejoin="miter" stroke-miterlimit="8" stroke-opacity="1" fill="none" fill-rule="evenodd" transform="matrix(1.00002 0 0 -1 4040.49 1237.51)"/><path d="M123.181 491.473 218.106 397.887 260.699 441.091 165.774 534.677Z" stroke="#FFFFFF" stroke-width="1.6597" stroke-linecap="butt" stroke-linejoin="miter" stroke-miterlimit="8" stroke-opacity="1" fill="#FFFFFF" fill-rule="nonzero" fill-opacity="1" transform="matrix(1.00002 0 0 1 3863.05 705.292)"/><path d="M143.579 632.738C143.579 627.172 148.091 622.66 153.656 622.66L436.232 622.66C441.797 622.66 446.309 627.172 446.309 632.738L446.309 692.973C446.309 698.538 441.797 703.05 436.232 703.05L153.656 703.05C148.091 703.05 143.579 698.538 143.579 692.973Z" stroke="#000000" stroke-width="1.6597" stroke-linecap="butt" stroke-linejoin="miter" stroke-miterlimit="8" stroke-opacity="1" fill="#000000" fill-rule="evenodd" fill-opacity="1" transform="matrix(1.00002 0 0 1 3863.05 705.292)"/><text fill="#FFFFFF" fill-opacity="1" font-family="Avenir Book,Avenir Book_MSFontService,sans-serif" font-style="normal" font-variant="normal" font-weight="700" font-stretch="normal" font-size="110" text-anchor="start" direction="ltr" writing-mode="lr-tb" unicode-bidi="normal" text-decoration="none" transform="matrix(0.362126 0 0 0.362117 4054.65 1380)">Annotation</text></g></g></g><path d="M2240.5 1525.17C2240.5 1511.54 2251.54 1500.5 2265.17 1500.5L2625.83 1500.5C2639.46 1500.5 2650.5 1511.54 2650.5 1525.17L2650.5 1623.83C2650.5 1637.46 2639.46 1648.5 2625.83 1648.5L2265.17 1648.5C2251.54 1648.5 2240.5 1637.46 2240.5 1623.83Z" stroke="#075353" stroke-width="3.4375" stroke-linecap="butt" stroke-linejoin="round" stroke-miterlimit="10" stroke-opacity="1" fill="none" fill-rule="evenodd"/><text fill="#000000" fill-opacity="1" font-family="Avenir Book,Avenir Book_MSFontService,sans-serif" font-style="oblique" font-variant="normal" font-weight="700" font-stretch="normal" font-size="83" text-anchor="start" direction="ltr" writing-mode="lr-tb" unicode-bidi="normal" text-decoration="none" transform="matrix(1 0 0 1 2289.74 1599)">splitting</text><path d="M0 0 208.956 546.845" stroke="#075353" stroke-width="2.29167" stroke-linecap="butt" stroke-linejoin="miter" stroke-miterlimit="8" stroke-opacity="1" fill="none" fill-rule="evenodd" transform="matrix(-1 0 0 1 2653.96 953)"/><g><g><g><path d="M1186.48 486.287C1186.48 480.808 1190.92 476.365 1196.4 476.365L1412.66 476.365C1418.13 476.365 1422.58 480.808 1422.58 486.287L1422.58 795.97C1422.58 801.448 1418.13 805.892 1412.66 805.892L1196.4 805.892C1190.92 805.892 1186.48 801.448 1186.48 795.97Z" stroke="#000000" stroke-width="12.0329" stroke-linecap="butt" stroke-linejoin="miter" stroke-miterlimit="8" stroke-opacity="1" fill="none" fill-rule="evenodd" transform="matrix(1.00002 0 0 1 641.804 851.047)"/><path d="M1186.48 479.972C1186.48 477.98 1188.09 476.365 1190.08 476.365L1269.78 476.365C1271.77 476.365 1273.38 477.98 1273.38 479.972L1273.38 558.58C1273.38 560.572 1271.77 562.187 1269.78 562.187L1190.08 562.187C1188.09 562.187 1186.48 560.572 1186.48 558.58Z" stroke="#000000" stroke-width="12.0329" stroke-linecap="butt" stroke-linejoin="miter" stroke-miterlimit="8" stroke-opacity="1" fill="none" fill-rule="evenodd" transform="matrix(1.00002 0 0 1 641.804 851.047)"/><path d="M0 0 86.9081 85.7254" stroke="#000000" stroke-width="11.6179" stroke-linecap="butt" stroke-linejoin="miter" stroke-miterlimit="8" stroke-opacity="1" fill="none" fill-rule="evenodd" transform="matrix(1.00002 0 0 -1 1828.13 1411.51)"/><path d="M1132.19 519.569 1227.11 425.984 1269.71 469.188 1174.78 562.773Z" stroke="#FFFFFF" stroke-width="1.6597" stroke-linecap="butt" stroke-linejoin="miter" stroke-miterlimit="8" stroke-opacity="1" fill="#FFFFFF" fill-rule="nonzero" fill-opacity="1" transform="matrix(1.00002 0 0 1 641.804 851.047)"/><path d="M1152.44 660.936C1152.44 655.396 1156.93 650.906 1162.47 650.906L1445.14 650.906C1450.68 650.906 1455.17 655.396 1455.17 660.936L1455.17 720.903C1455.17 726.443 1450.68 730.933 1445.14 730.933L1162.47 730.933C1156.93 730.933 1152.44 726.443 1152.44 720.903Z" stroke="#000000" stroke-width="1.6597" stroke-linecap="butt" stroke-linejoin="miter" stroke-miterlimit="8" stroke-opacity="1" fill="#000000" fill-rule="evenodd" fill-opacity="1" transform="matrix(1.00002 0 0 1 641.804 851.047)"/><text fill="#FFFFFF" fill-opacity="1" font-family="Avenir Book,Avenir Book_MSFontService,sans-serif" font-style="normal" font-variant="normal" font-weight="700" font-stretch="normal" font-size="110" text-anchor="start" direction="ltr" writing-mode="lr-tb" unicode-bidi="normal" text-decoration="none" transform="matrix(0.362126 0 0 0.362117 1900.33 1554)">Stats</text></g></g></g><g><g><g><path d="M507.619 543.724C507.619 538.229 512.076 533.772 517.572 533.772L734.495 533.772C739.99 533.772 744.447 538.229 744.447 543.724L744.447 854.362C744.447 859.857 739.99 864.314 734.495 864.314L517.572 864.314C512.076 864.314 507.619 859.857 507.619 854.362Z" stroke="#000000" stroke-width="12.07" stroke-linecap="butt" stroke-linejoin="miter" stroke-miterlimit="8" stroke-opacity="1" fill="none" fill-rule="evenodd" transform="matrix(1 0 0 1.00064 3578.86 1524.77)"/><path d="M507.619 537.39C507.619 535.392 509.239 533.772 511.237 533.772L591.177 533.772C593.175 533.772 594.795 535.392 594.795 537.39L594.795 616.24C594.795 618.238 593.175 619.858 591.177 619.858L511.237 619.858C509.239 619.858 507.619 618.238 507.619 616.24Z" stroke="#000000" stroke-width="12.07" stroke-linecap="butt" stroke-linejoin="miter" stroke-miterlimit="8" stroke-opacity="1" fill="none" fill-rule="evenodd" transform="matrix(1 0 0 1.00064 3578.86 1524.77)"/><path d="M0 0 87.1761 85.9897" stroke="#000000" stroke-width="11.6537" stroke-linecap="butt" stroke-linejoin="miter" stroke-miterlimit="8" stroke-opacity="1" fill="none" fill-rule="evenodd" transform="matrix(1 0 0 -1.00064 4086.3 2143.29)"/><path d="M453.108 577.247 548.327 483.373 591.054 526.711 495.836 620.585Z" stroke="#FFFFFF" stroke-width="1.66482" stroke-linecap="butt" stroke-linejoin="miter" stroke-miterlimit="8" stroke-opacity="1" fill="#FFFFFF" fill-rule="nonzero" fill-opacity="1" transform="matrix(1 0 0 1.00064 3578.86 1524.77)"/><path d="M473.475 718.959C473.475 713.376 478.001 708.85 483.584 708.85L767.029 708.85C772.612 708.85 777.138 713.376 777.138 718.959L777.138 779.379C777.138 784.962 772.612 789.488 767.029 789.488L483.584 789.488C478.001 789.488 473.475 784.962 473.475 779.379Z" stroke="#000000" stroke-width="1.66482" stroke-linecap="butt" stroke-linejoin="miter" stroke-miterlimit="8" stroke-opacity="1" fill="#000000" fill-rule="evenodd" fill-opacity="1" transform="matrix(1 0 0 1.00064 3578.86 1524.77)"/><text fill="#FFFFFF" fill-opacity="1" font-family="Avenir Book,Avenir Book_MSFontService,sans-serif" font-style="normal" font-variant="normal" font-weight="700" font-stretch="normal" font-size="92" text-anchor="start" direction="ltr" writing-mode="lr-tb" unicode-bidi="normal" text-decoration="none" transform="matrix(0.363234 0 0 0.363467 4116.52 2284)">Alignments</text></g></g></g><g><g><g><path d="M516.799 408.638C516.799 403.175 521.229 398.746 526.691 398.746L742.291 398.746C747.754 398.746 752.183 403.175 752.183 408.638L752.183 717.381C752.183 722.843 747.754 727.273 742.291 727.273L526.691 727.273C521.229 727.273 516.799 722.843 516.799 717.381Z" stroke="#000000" stroke-width="11.9964" stroke-linecap="butt" stroke-linejoin="miter" stroke-miterlimit="8" stroke-opacity="1" fill="none" fill-rule="evenodd" transform="matrix(1 0 0 1.00211 3253.06 1659.78)"/><path d="M516.799 402.341C516.799 400.356 518.409 398.746 520.395 398.746L599.848 398.746C601.833 398.746 603.443 400.356 603.443 402.341L603.443 480.711C603.443 482.697 601.833 484.307 599.848 484.307L520.395 484.307C518.409 484.307 516.799 482.697 516.799 480.711Z" stroke="#000000" stroke-width="11.9964" stroke-linecap="butt" stroke-linejoin="miter" stroke-miterlimit="8" stroke-opacity="1" fill="none" fill-rule="evenodd" transform="matrix(1 0 0 1.00211 3253.06 1659.78)"/><path d="M0 0 86.6446 85.4655" stroke="#000000" stroke-width="11.5827" stroke-linecap="butt" stroke-linejoin="miter" stroke-miterlimit="8" stroke-opacity="1" fill="none" fill-rule="evenodd" transform="matrix(1 0 0 -1.00211 3769.68 2143.38)"/><path d="M462.606 441.783 557.24 348.481 599.707 391.554 505.069 484.856Z" stroke="#FFFFFF" stroke-width="1.65467" stroke-linecap="butt" stroke-linejoin="miter" stroke-miterlimit="8" stroke-opacity="1" fill="#FFFFFF" fill-rule="nonzero" fill-opacity="1" transform="matrix(1 0 0 1.00211 3253.06 1659.78)"/><path d="M482.863 582.757C482.863 577.233 487.34 572.757 492.863 572.757L774.675 572.757C780.198 572.757 784.675 577.233 784.675 582.757L784.675 642.542C784.675 648.065 780.198 652.542 774.675 652.542L492.863 652.542C487.34 652.542 482.863 648.065 482.863 642.542Z" stroke="#000000" stroke-width="1.65467" stroke-linecap="butt" stroke-linejoin="miter" stroke-miterlimit="8" stroke-opacity="1" fill="#000000" fill-rule="evenodd" fill-opacity="1" transform="matrix(1 0 0 1.00211 3253.06 1659.78)"/><text fill="#FFFFFF" fill-opacity="1" font-family="Avenir Book,Avenir Book_MSFontService,sans-serif" font-style="normal" font-variant="normal" font-weight="700" font-stretch="normal" font-size="92" text-anchor="start" direction="ltr" writing-mode="lr-tb" unicode-bidi="normal" text-decoration="none" transform="matrix(0.361019 0 0 0.361781 3819.45 2284)">Peptides</text></g></g></g><g><g><g><path d="M844.337 30.4766C844.337 24.9792 848.794 20.5227 854.29 20.5227L1071.21 20.5227C1076.71 20.5227 1081.17 24.9792 1081.17 30.4766L1081.17 341.112C1081.17 346.609 1076.71 351.066 1071.21 351.066L854.29 351.066C848.794 351.066 844.337 346.609 844.337 341.112Z" stroke="#000000" stroke-width="12.07" stroke-linecap="butt" stroke-linejoin="miter" stroke-miterlimit="8" stroke-opacity="1" fill="none" fill-rule="evenodd" transform="matrix(1 0 0 1.00157 2606.87 2037.65)"/><path d="M844.337 24.1256C844.337 22.1358 845.95 20.5227 847.941 20.5227L927.91 20.5227C929.901 20.5227 931.514 22.1358 931.514 24.1256L931.514 102.643C931.514 104.633 929.901 106.246 927.91 106.246L847.941 106.246C845.95 106.246 844.337 104.633 844.337 102.643Z" stroke="#000000" stroke-width="12.07" stroke-linecap="butt" stroke-linejoin="miter" stroke-miterlimit="8" stroke-opacity="1" fill="none" fill-rule="evenodd" transform="matrix(1 0 0 1.00157 2606.87 2037.65)"/><path d="M0 0 87.1762 85.9898" stroke="#000000" stroke-width="11.6537" stroke-linecap="butt" stroke-linejoin="miter" stroke-miterlimit="8" stroke-opacity="1" fill="none" fill-rule="evenodd" transform="matrix(1 0 0 -1.00157 3451.03 2142.69)"/><path d="M789.769 63.6756 884.987-30.1982 927.714 13.1384 832.496 107.012Z" stroke="#FFFFFF" stroke-width="1.66482" stroke-linecap="butt" stroke-linejoin="miter" stroke-miterlimit="8" stroke-opacity="1" fill="#FFFFFF" fill-rule="nonzero" fill-opacity="1" transform="matrix(1 0 0 1.00157 2606.87 2037.65)"/><path d="M810.193 205.664C810.193 200.107 814.697 195.602 820.255 195.602L1103.8 195.602C1109.35 195.602 1113.86 200.107 1113.86 205.664L1113.86 265.814C1113.86 271.371 1109.35 275.876 1103.8 275.876L820.255 275.876C814.697 275.876 810.193 271.371 810.193 265.814Z" stroke="#000000" stroke-width="1.66482" stroke-linecap="butt" stroke-linejoin="miter" stroke-miterlimit="8" stroke-opacity="1" fill="#000000" fill-rule="evenodd" fill-opacity="1" transform="matrix(1 0 0 1.00157 2606.87 2037.65)"/><text fill="#FFFFFF" fill-opacity="1" font-family="Avenir Book,Avenir Book_MSFontService,sans-serif" font-style="normal" font-variant="normal" font-weight="700" font-stretch="normal" font-size="92" text-anchor="start" direction="ltr" writing-mode="lr-tb" unicode-bidi="normal" text-decoration="none" transform="matrix(0.363234 0 0 0.363806 3443.32 2284)">Genes Summary</text></g></g></g><path d="M3294.49 1935.94 3398.12 2064.61C3403.68 2071.52 3402.59 2081.61 3395.69 2087.17 3388.79 2092.73 3378.69 2091.64 3373.13 2084.74L3269.51 1956.06C3263.95 1949.16 3265.04 1939.06 3271.94 1933.51 3278.84 1927.95 3288.94 1929.04 3294.49 1935.94ZM3423.11 2044.49C3439.78 2065.19 3436.51 2095.49 3415.81 2112.16 3395.11 2128.83 3364.82 2125.56 3348.14 2104.86 3331.47 2084.16 3334.74 2053.87 3355.44 2037.19 3376.14 2020.52 3406.44 2023.79 3423.11 2044.49Z" fill="#00C0C0" fill-rule="nonzero" fill-opacity="1"/><path d="M3193 1909C3193 1880.28 3216.28 1857 3245 1857 3273.72 1857 3297 1880.28 3297 1909 3297 1937.72 3273.72 1961 3245 1961 3216.28 1961 3193 1937.72 3193 1909Z" fill="#075353" fill-rule="evenodd" fill-opacity="1"/><text fill="#FFFFFF" fill-opacity="1" font-family="Calibri,Calibri_MSFontService,sans-serif" font-style="normal" font-variant="normal" font-weight="400" font-stretch="normal" font-size="64" text-anchor="start" direction="ltr" writing-mode="lr-tb" unicode-bidi="normal" text-decoration="none" transform="matrix(1 0 0 1 3212.26 1930)">13</text><path d="M1705 471.5C1705 443.057 1728.28 420 1757 420 1785.72 420 1809 443.057 1809 471.5 1809 499.943 1785.72 523 1757 523 1728.28 523 1705 499.943 1705 471.5Z" fill="#075353" fill-rule="evenodd" fill-opacity="1"/><text fill="#FFFFFF" fill-opacity="1" font-family="Calibri,Calibri_MSFontService,sans-serif" font-style="normal" font-variant="normal" font-weight="400" font-stretch="normal" font-size="83" text-anchor="start" direction="ltr" writing-mode="lr-tb" unicode-bidi="normal" text-decoration="none" transform="matrix(1 0 0 1 1736.15 499)">5</text><path d="M2205 471.5C2205 443.057 2228.28 420 2257 420 2285.72 420 2309 443.057 2309 471.5 2309 499.943 2285.72 523 2257 523 2228.28 523 2205 499.943 2205 471.5Z" fill="#075353" fill-rule="evenodd" fill-opacity="1"/><text fill="#FFFFFF" fill-opacity="1" font-family="Calibri,Calibri_MSFontService,sans-serif" font-style="normal" font-variant="normal" font-weight="400" font-stretch="normal" font-size="83" text-anchor="start" direction="ltr" writing-mode="lr-tb" unicode-bidi="normal" text-decoration="none" transform="matrix(1 0 0 1 2236 499)">6</text><path d="M2367 1128C2367 1099.28 2390.51 1076 2419.5 1076 2448.49 1076 2472 1099.28 2472 1128 2472 1156.72 2448.49 1180 2419.5 1180 2390.51 1180 2367 1156.72 2367 1128Z" fill="#075353" fill-rule="evenodd" fill-opacity="1"/><text fill="#FFFFFF" fill-opacity="1" font-family="Calibri,Calibri_MSFontService,sans-serif" font-style="normal" font-variant="normal" font-weight="400" font-stretch="normal" font-size="83" text-anchor="start" direction="ltr" writing-mode="lr-tb" unicode-bidi="normal" text-decoration="none" transform="matrix(1 0 0 1 2398.51 1155)">7</text><text fill="#000000" fill-opacity="1" font-family="Avenir Book,Avenir Book_MSFontService,sans-serif" font-style="normal" font-variant="normal" font-weight="400" font-stretch="normal" font-size="83" text-anchor="start" direction="ltr" writing-mode="lr-tb" unicode-bidi="normal" text-decoration="none" transform="matrix(0.705186 -0.709022 0.709022 0.705186 2807.04 722)">phage</text><path d="M2894 1394 3047.58 1394" stroke="#00C0C0" stroke-width="32.0833" stroke-linecap="round" stroke-linejoin="round" stroke-miterlimit="10" stroke-opacity="1" fill="none" fill-rule="evenodd"/><text fill="#000000" fill-opacity="1" font-family="Avenir Book,Avenir Book_MSFontService,sans-serif" font-style="normal" font-variant="normal" font-weight="400" font-stretch="normal" font-size="83" text-anchor="start" direction="ltr" writing-mode="lr-tb" unicode-bidi="normal" text-decoration="none" transform="matrix(1 0 0 1 2818.97 869)">plasmid</text><path d="M3016 1387C3016 1358.28 3039.28 1335 3068 1335 3096.72 1335 3120 1358.28 3120 1387 3120 1415.72 3096.72 1439 3068 1439 3039.28 1439 3016 1415.72 3016 1387Z" fill="#075353" fill-rule="evenodd" fill-opacity="1"/><text fill="#FFFFFF" fill-opacity="1" font-family="Calibri,Calibri_MSFontService,sans-serif" font-style="normal" font-variant="normal" font-weight="400" font-stretch="normal" font-size="64" text-anchor="start" direction="ltr" writing-mode="lr-tb" unicode-bidi="normal" text-decoration="none" transform="matrix(1 0 0 1 3035.37 1408)">11</text><text fill="#000000" fill-opacity="1" font-family="Avenir Book,Avenir Book_MSFontService,sans-serif" font-style="normal" font-variant="normal" font-weight="400" font-stretch="normal" font-size="83" text-anchor="start" direction="ltr" writing-mode="lr-tb" unicode-bidi="normal" text-decoration="none" transform="matrix(0.459499 0.888178 -0.888178 0.459499 2688.99 951)">chromosome</text><path d="M1336.5 1256.17C1336.5 1242.54 1347.54 1231.5 1361.17 1231.5L1749.83 1231.5C1763.46 1231.5 1774.5 1242.54 1774.5 1256.17L1774.5 1354.83C1774.5 1368.46 1763.46 1379.5 1749.83 1379.5L1361.17 1379.5C1347.54 1379.5 1336.5 1368.46 1336.5 1354.83Z" stroke="#075353" stroke-width="3.4375" stroke-linecap="butt" stroke-linejoin="round" stroke-miterlimit="10" stroke-opacity="1" fill="none" fill-rule="evenodd"/><text fill="#000000" fill-opacity="1" font-family="Avenir Book,Avenir Book_MSFontService,sans-serif" font-style="normal" font-variant="normal" font-weight="700" font-stretch="normal" font-size="83" text-anchor="start" direction="ltr" writing-mode="lr-tb" unicode-bidi="normal" text-decoration="none" transform="matrix(1 0 0 1 1376.39 1330)">qualimap</text><path d="M0 0 71.3661 55.0523" stroke="#075353" stroke-width="2.29167" stroke-linecap="butt" stroke-linejoin="miter" stroke-miterlimit="8" stroke-opacity="1" fill="none" fill-rule="evenodd" transform="matrix(-1 0 0 1 1555.37 1379)"/></g></g></svg>