<svg width="903" height="1078" xmlns="http://www.w3.org/2000/svg" xmlns:xlink="http://www.w3.org/1999/xlink" xml:space="preserve" overflow="hidden"><g transform="translate(-1274 -957)"><g><path d="M1431.5 1131.9C1431.5 1116.77 1443.77 1104.5 1458.9 1104.5L2056.1 1104.5C2071.23 1104.5 2083.5 1116.77 2083.5 1131.9L2083.5 1987.1C2083.5 2002.23 2071.23 2014.5 2056.1 2014.5L1458.9 2014.5C1443.77 2014.5 1431.5 2002.23 1431.5 1987.1Z" stroke="#000000" stroke-width="33.2292" stroke-linecap="butt" stroke-linejoin="miter" stroke-miterlimit="8" stroke-opacity="1" fill="none" fill-rule="evenodd"/><path d="M1431.5 1114.46C1431.5 1108.96 1435.96 1104.5 1441.46 1104.5L1661.54 1104.5C1667.04 1104.5 1671.5 1108.96 1671.5 1114.46L1671.5 1331.54C1671.5 1337.04 1667.04 1341.5 1661.54 1341.5L1441.46 1341.5C1435.96 1341.5 1431.5 1337.04 1431.5 1331.54Z" stroke="#000000" stroke-width="33.2292" stroke-linecap="butt" stroke-linejoin="miter" stroke-miterlimit="8" stroke-opacity="1" fill="none" fill-rule="evenodd"/><path d="M0 0 240 236.734" stroke="#000000" stroke-width="32.0833" stroke-linecap="butt" stroke-linejoin="miter" stroke-miterlimit="8" stroke-opacity="1" fill="none" fill-rule="evenodd" transform="matrix(1 0 0 -1 1431 1336.73)"/><path d="M1281.39 1223.71 1543.52 965.269 1661.15 1084.58 1399.01 1343.02Z" stroke="#FFFFFF" stroke-width="4.58333" stroke-linecap="butt" stroke-linejoin="miter" stroke-miterlimit="8" stroke-opacity="1" fill="#FFFFFF" fill-rule="nonzero" fill-opacity="1"/><path d="M1337.5 1614.2C1337.5 1598.9 1349.9 1586.5 1365.2 1586.5L2145.8 1586.5C2161.1 1586.5 2173.5 1598.9 2173.5 1614.2L2173.5 1779.8C2173.5 1795.1 2161.1 1807.5 2145.8 1807.5L1365.2 1807.5C1349.9 1807.5 1337.5 1795.1 1337.5 1779.8Z" stroke="#000000" stroke-width="4.58333" stroke-linecap="butt" stroke-linejoin="miter" stroke-miterlimit="8" stroke-opacity="1" fill="#000000" fill-rule="evenodd" fill-opacity="1"/><text fill="#FFFFFF" fill-opacity="1" font-family="Avenir Book,Avenir Book_MSFontService,sans-serif" font-style="normal" font-variant="normal" font-weight="700" font-stretch="normal" font-size="92" text-anchor="start" direction="ltr" writing-mode="lr-tb" unicode-bidi="normal" text-decoration="none" transform="matrix(1 0 0 1 1568.87 1725)">Peptides</text></g></g></svg>