<svg width="903" height="1073" xmlns="http://www.w3.org/2000/svg" xmlns:xlink="http://www.w3.org/1999/xlink" xml:space="preserve" overflow="hidden"><g transform="translate(-3020 -123)"><g><path d="M3178.5 293.903C3178.5 278.769 3190.77 266.5 3205.9 266.5L3803.1 266.5C3818.23 266.5 3830.5 278.769 3830.5 293.903L3830.5 1149.1C3830.5 1164.23 3818.23 1176.5 3803.1 1176.5L3205.9 1176.5C3190.77 1176.5 3178.5 1164.23 3178.5 1149.1Z" stroke="#000000" stroke-width="33.2292" stroke-linecap="butt" stroke-linejoin="miter" stroke-miterlimit="8" stroke-opacity="1" fill="none" fill-rule="evenodd"/><path d="M3178.5 276.461C3178.5 270.96 3182.96 266.5 3188.46 266.5L3408.54 266.5C3414.04 266.5 3418.5 270.96 3418.5 276.461L3418.5 493.539C3418.5 499.04 3414.04 503.5 3408.54 503.5L3188.46 503.5C3182.96 503.5 3178.5 499.04 3178.5 493.539Z" stroke="#000000" stroke-width="33.2292" stroke-linecap="butt" stroke-linejoin="miter" stroke-miterlimit="8" stroke-opacity="1" fill="none" fill-rule="evenodd"/><path d="M0 0 240 236.734" stroke="#000000" stroke-width="32.0833" stroke-linecap="butt" stroke-linejoin="miter" stroke-miterlimit="8" stroke-opacity="1" fill="none" fill-rule="evenodd" transform="matrix(1 0 0 -1 3178 498.734)"/><path d="M3028 385.923 3290.14 127.484 3407.76 246.791 3145.62 505.231Z" stroke="#FFFFFF" stroke-width="4.58333" stroke-linecap="butt" stroke-linejoin="miter" stroke-miterlimit="8" stroke-opacity="1" fill="#FFFFFF" fill-rule="nonzero" fill-opacity="1"/><path d="M3084.5 776.202C3084.5 760.902 3096.9 748.5 3112.2 748.5L3892.8 748.5C3908.1 748.5 3920.5 760.902 3920.5 776.202L3920.5 941.798C3920.5 957.097 3908.1 969.5 3892.8 969.5L3112.2 969.5C3096.9 969.5 3084.5 957.097 3084.5 941.798Z" stroke="#000000" stroke-width="4.58333" stroke-linecap="butt" stroke-linejoin="miter" stroke-miterlimit="8" stroke-opacity="1" fill="#000000" fill-rule="evenodd" fill-opacity="1"/><text fill="#FFFFFF" fill-opacity="1" font-family="Avenir Book,Avenir Book_MSFontService,sans-serif" font-style="normal" font-variant="normal" font-weight="700" font-stretch="normal" font-size="110" text-anchor="start" direction="ltr" writing-mode="lr-tb" unicode-bidi="normal" text-decoration="none" transform="matrix(1 0 0 1 3316.63 893)">Phages</text></g></g></svg>