<svg width="903" height="1073" xmlns="http://www.w3.org/2000/svg" xmlns:xlink="http://www.w3.org/1999/xlink" xml:space="preserve" overflow="hidden"><g transform="translate(-1338 -77)"><g><path d="M1494.5 249.903C1494.5 234.769 1506.77 222.5 1521.9 222.5L2119.1 222.5C2134.23 222.5 2146.5 234.769 2146.5 249.903L2146.5 1105.1C2146.5 1120.23 2134.23 1132.5 2119.1 1132.5L1521.9 1132.5C1506.77 1132.5 1494.5 1120.23 1494.5 1105.1Z" stroke="#000000" stroke-width="33.2292" stroke-linecap="butt" stroke-linejoin="miter" stroke-miterlimit="8" stroke-opacity="1" fill="none" fill-rule="evenodd"/><path d="M1494.5 232.461C1494.5 226.96 1498.96 222.5 1504.46 222.5L1724.54 222.5C1730.04 222.5 1734.5 226.96 1734.5 232.461L1734.5 449.539C1734.5 455.04 1730.04 459.5 1724.54 459.5L1504.46 459.5C1498.96 459.5 1494.5 455.04 1494.5 449.539Z" stroke="#000000" stroke-width="33.2292" stroke-linecap="butt" stroke-linejoin="miter" stroke-miterlimit="8" stroke-opacity="1" fill="none" fill-rule="evenodd"/><path d="M0 0 240 236.734" stroke="#000000" stroke-width="32.0833" stroke-linecap="butt" stroke-linejoin="miter" stroke-miterlimit="8" stroke-opacity="1" fill="none" fill-rule="evenodd" transform="matrix(1 0 0 -1 1494 454.734)"/><path d="M1344.78 342.115 1606.92 83.6753 1724.54 202.983 1462.4 461.423Z" stroke="#FFFFFF" stroke-width="4.58333" stroke-linecap="butt" stroke-linejoin="miter" stroke-miterlimit="8" stroke-opacity="1" fill="#FFFFFF" fill-rule="nonzero" fill-opacity="1"/><path d="M1400.5 732.327C1400.5 716.959 1412.96 704.5 1428.33 704.5L2208.67 704.5C2224.04 704.5 2236.5 716.959 2236.5 732.327L2236.5 898.672C2236.5 914.041 2224.04 926.5 2208.67 926.5L1428.33 926.5C1412.96 926.5 1400.5 914.041 1400.5 898.672Z" stroke="#000000" stroke-width="4.58333" stroke-linecap="butt" stroke-linejoin="miter" stroke-miterlimit="8" stroke-opacity="1" fill="#000000" fill-rule="evenodd" fill-opacity="1"/><text fill="#FFFFFF" fill-opacity="1" font-family="Avenir Book,Avenir Book_MSFontService,sans-serif" font-style="normal" font-variant="normal" font-weight="700" font-stretch="normal" font-size="110" text-anchor="start" direction="ltr" writing-mode="lr-tb" unicode-bidi="normal" text-decoration="none" transform="matrix(1 0 0 1 1595.89 849)">Plasmids</text></g></g></svg>