<svg width="908" height="1081" xmlns="http://www.w3.org/2000/svg" xmlns:xlink="http://www.w3.org/1999/xlink" xml:space="preserve" overflow="hidden"><g transform="translate(-77 4)"><g><path d="M238.5 177.904C238.5 162.769 250.769 150.5 265.904 150.5L863.097 150.5C878.231 150.5 890.5 162.769 890.5 177.904L890.5 1033.1C890.5 1048.23 878.231 1060.5 863.097 1060.5L265.904 1060.5C250.769 1060.5 238.5 1048.23 238.5 1033.1Z" stroke="#000000" stroke-width="33.2292" stroke-linecap="butt" stroke-linejoin="miter" stroke-miterlimit="8" stroke-opacity="1" fill="none" fill-rule="evenodd"/><path d="M238.5 160.461C238.5 154.96 242.96 150.5 248.461 150.5L468.539 150.5C474.04 150.5 478.5 154.96 478.5 160.461L478.5 377.539C478.5 383.04 474.04 387.5 468.539 387.5L248.461 387.5C242.96 387.5 238.5 383.04 238.5 377.539Z" stroke="#000000" stroke-width="33.2292" stroke-linecap="butt" stroke-linejoin="miter" stroke-miterlimit="8" stroke-opacity="1" fill="none" fill-rule="evenodd"/><path d="M0 0 240 236.734" stroke="#000000" stroke-width="32.0833" stroke-linecap="butt" stroke-linejoin="miter" stroke-miterlimit="8" stroke-opacity="1" fill="none" fill-rule="evenodd" transform="matrix(1 0 0 -1 238 382.734)"/><path d="M83.7286 250.996 335.884 2.3987 465.064 133.428 212.908 382.025Z" stroke="#FFFFFF" stroke-width="4.58333" stroke-linecap="butt" stroke-linejoin="miter" stroke-miterlimit="8" stroke-opacity="1" fill="#FFFFFF" fill-rule="nonzero" fill-opacity="1"/><path d="M144.5 660.202C144.5 644.903 156.903 632.5 172.202 632.5L952.798 632.5C968.097 632.5 980.5 644.903 980.5 660.202L980.5 825.798C980.5 841.097 968.097 853.5 952.798 853.5L172.202 853.5C156.903 853.5 144.5 841.097 144.5 825.798Z" stroke="#000000" stroke-width="4.58333" stroke-linecap="butt" stroke-linejoin="miter" stroke-miterlimit="8" stroke-opacity="1" fill="#000000" fill-rule="evenodd" fill-opacity="1"/><text fill="#FFFFFF" fill-opacity="1" font-family="Avenir Book,Avenir Book_MSFontService,sans-serif" font-style="normal" font-variant="normal" font-weight="700" font-stretch="normal" font-size="83" text-anchor="start" direction="ltr" writing-mode="lr-tb" unicode-bidi="normal" text-decoration="none" transform="matrix(1 0 0 1 205.262 768)">READS FORWARD</text></g></g></svg>