<svg width="903" height="1073" xmlns="http://www.w3.org/2000/svg" xmlns:xlink="http://www.w3.org/1999/xlink" xml:space="preserve" overflow="hidden"><g transform="translate(-944 -4)"><g><path d="M1099.5 177.904C1099.5 162.769 1111.77 150.5 1126.9 150.5L1724.1 150.5C1739.23 150.5 1751.5 162.769 1751.5 177.904L1751.5 1033.1C1751.5 1048.23 1739.23 1060.5 1724.1 1060.5L1126.9 1060.5C1111.77 1060.5 1099.5 1048.23 1099.5 1033.1Z" stroke="#000000" stroke-width="33.2292" stroke-linecap="butt" stroke-linejoin="miter" stroke-miterlimit="8" stroke-opacity="1" fill="none" fill-rule="evenodd"/><path d="M1099.5 160.461C1099.5 154.96 1103.96 150.5 1109.46 150.5L1329.54 150.5C1335.04 150.5 1339.5 154.96 1339.5 160.461L1339.5 377.539C1339.5 383.04 1335.04 387.5 1329.54 387.5L1109.46 387.5C1103.96 387.5 1099.5 383.04 1099.5 377.539Z" stroke="#000000" stroke-width="33.2292" stroke-linecap="butt" stroke-linejoin="miter" stroke-miterlimit="8" stroke-opacity="1" fill="none" fill-rule="evenodd"/><path d="M0 0 240 236.734" stroke="#000000" stroke-width="32.0833" stroke-linecap="butt" stroke-linejoin="miter" stroke-miterlimit="8" stroke-opacity="1" fill="none" fill-rule="evenodd" transform="matrix(1 0 0 -1 1099 382.734)"/><path d="M949.239 270.044 1211.38 11.6044 1329 130.912 1066.86 389.352Z" stroke="#FFFFFF" stroke-width="4.58333" stroke-linecap="butt" stroke-linejoin="miter" stroke-miterlimit="8" stroke-opacity="1" fill="#FFFFFF" fill-rule="nonzero" fill-opacity="1"/><path d="M1005.5 660.202C1005.5 644.903 1017.9 632.5 1033.2 632.5L1813.8 632.5C1829.1 632.5 1841.5 644.903 1841.5 660.202L1841.5 825.798C1841.5 841.097 1829.1 853.5 1813.8 853.5L1033.2 853.5C1017.9 853.5 1005.5 841.097 1005.5 825.798Z" stroke="#000000" stroke-width="4.58333" stroke-linecap="butt" stroke-linejoin="miter" stroke-miterlimit="8" stroke-opacity="1" fill="#000000" fill-rule="evenodd" fill-opacity="1"/><text fill="#FFFFFF" fill-opacity="1" font-family="Avenir Book,Avenir Book_MSFontService,sans-serif" font-style="normal" font-variant="normal" font-weight="700" font-stretch="normal" font-size="83" text-anchor="start" direction="ltr" writing-mode="lr-tb" unicode-bidi="normal" text-decoration="none" transform="matrix(1 0 0 1 1100.66 768)">READS REVERSE</text></g></g></svg>