<svg width="899" height="1073" xmlns="http://www.w3.org/2000/svg" xmlns:xlink="http://www.w3.org/1999/xlink" xml:space="preserve" overflow="hidden"><g transform="translate(-1961 -59)"><g><path d="M2115.5 232.904C2115.5 217.769 2127.77 205.5 2142.9 205.5L2740.1 205.5C2755.23 205.5 2767.5 217.769 2767.5 232.904L2767.5 1088.1C2767.5 1103.23 2755.23 1115.5 2740.1 1115.5L2142.9 1115.5C2127.77 1115.5 2115.5 1103.23 2115.5 1088.1Z" stroke="#000000" stroke-width="33.2292" stroke-linecap="butt" stroke-linejoin="miter" stroke-miterlimit="8" stroke-opacity="1" fill="none" fill-rule="evenodd"/><path d="M2115.5 215.461C2115.5 209.96 2119.96 205.5 2125.46 205.5L2345.54 205.5C2351.04 205.5 2355.5 209.96 2355.5 215.461L2355.5 432.539C2355.5 438.04 2351.04 442.5 2345.54 442.5L2125.46 442.5C2119.96 442.5 2115.5 438.04 2115.5 432.539Z" stroke="#000000" stroke-width="33.2292" stroke-linecap="butt" stroke-linejoin="miter" stroke-miterlimit="8" stroke-opacity="1" fill="none" fill-rule="evenodd"/><path d="M0 0 240 236.734" stroke="#000000" stroke-width="32.0833" stroke-linecap="butt" stroke-linejoin="miter" stroke-miterlimit="8" stroke-opacity="1" fill="none" fill-rule="evenodd" transform="matrix(1 0 0 -1 2115 437.734)"/><path d="M1965.28 324.524 2227.42 66.084 2345.04 185.392 2082.9 443.831Z" stroke="#FFFFFF" stroke-width="4.58333" stroke-linecap="butt" stroke-linejoin="miter" stroke-miterlimit="8" stroke-opacity="1" fill="#FFFFFF" fill-rule="nonzero" fill-opacity="1"/><path d="M2021.5 715.202C2021.5 699.903 2033.9 687.5 2049.2 687.5L2829.8 687.5C2845.1 687.5 2857.5 699.903 2857.5 715.202L2857.5 880.798C2857.5 896.097 2845.1 908.5 2829.8 908.5L2049.2 908.5C2033.9 908.5 2021.5 896.097 2021.5 880.798Z" stroke="#000000" stroke-width="4.58333" stroke-linecap="butt" stroke-linejoin="miter" stroke-miterlimit="8" stroke-opacity="1" fill="#000000" fill-rule="evenodd" fill-opacity="1"/><text fill="#FFFFFF" fill-opacity="1" font-family="Avenir Book,Avenir Book_MSFontService,sans-serif" font-style="normal" font-variant="normal" font-weight="700" font-stretch="normal" font-size="83" text-anchor="start" direction="ltr" writing-mode="lr-tb" unicode-bidi="normal" text-decoration="none" transform="matrix(1 0 0 1 2169.98 823)">READS LONG</text></g></g></svg>