<svg width="902" height="1073" xmlns="http://www.w3.org/2000/svg" xmlns:xlink="http://www.w3.org/1999/xlink" xml:space="preserve" overflow="hidden"><g transform="translate(-550 -1127)"><g><path d="M705.5 1298.9C705.5 1283.77 717.769 1271.5 732.903 1271.5L1330.1 1271.5C1345.23 1271.5 1357.5 1283.77 1357.5 1298.9L1357.5 2154.1C1357.5 2169.23 1345.23 2181.5 1330.1 2181.5L732.903 2181.5C717.769 2181.5 705.5 2169.23 705.5 2154.1Z" stroke="#000000" stroke-width="33.2292" stroke-linecap="butt" stroke-linejoin="miter" stroke-miterlimit="8" stroke-opacity="1" fill="none" fill-rule="evenodd"/><path d="M705.5 1281.46C705.5 1275.96 709.96 1271.5 715.461 1271.5L935.539 1271.5C941.04 1271.5 945.5 1275.96 945.5 1281.46L945.5 1498.54C945.5 1504.04 941.04 1508.5 935.539 1508.5L715.461 1508.5C709.96 1508.5 705.5 1504.04 705.5 1498.54Z" stroke="#000000" stroke-width="33.2292" stroke-linecap="butt" stroke-linejoin="miter" stroke-miterlimit="8" stroke-opacity="1" fill="none" fill-rule="evenodd"/><path d="M0 0 240 236.734" stroke="#000000" stroke-width="32.0833" stroke-linecap="butt" stroke-linejoin="miter" stroke-miterlimit="8" stroke-opacity="1" fill="none" fill-rule="evenodd" transform="matrix(1 0 0 -1 705 1503.73)"/><path d="M555.711 1390.84 817.85 1132.4 935.474 1251.7 673.335 1510.14Z" stroke="#FFFFFF" stroke-width="4.58333" stroke-linecap="butt" stroke-linejoin="miter" stroke-miterlimit="8" stroke-opacity="1" fill="#FFFFFF" fill-rule="nonzero" fill-opacity="1"/><path d="M611.5 1781.2C611.5 1765.9 623.903 1753.5 639.202 1753.5L1419.8 1753.5C1435.1 1753.5 1447.5 1765.9 1447.5 1781.2L1447.5 1946.8C1447.5 1962.1 1435.1 1974.5 1419.8 1974.5L639.202 1974.5C623.903 1974.5 611.5 1962.1 611.5 1946.8Z" stroke="#000000" stroke-width="4.58333" stroke-linecap="butt" stroke-linejoin="miter" stroke-miterlimit="8" stroke-opacity="1" fill="#000000" fill-rule="evenodd" fill-opacity="1"/><text fill="#FFFFFF" fill-opacity="1" font-family="Avenir Book,Avenir Book_MSFontService,sans-serif" font-style="normal" font-variant="normal" font-weight="700" font-stretch="normal" font-size="110" text-anchor="start" direction="ltr" writing-mode="lr-tb" unicode-bidi="normal" text-decoration="none" transform="matrix(1 0 0 1 711.139 1898)">REFERENCE</text></g></g></svg>