<svg width="903" height="1072" xmlns="http://www.w3.org/2000/svg" xmlns:xlink="http://www.w3.org/1999/xlink" xml:space="preserve" overflow="hidden"><g transform="translate(-1961 -1141)"><g><path d="M2118.5 1312.9C2118.5 1297.77 2130.77 1285.5 2145.9 1285.5L2743.1 1285.5C2758.23 1285.5 2770.5 1297.77 2770.5 1312.9L2770.5 2168.1C2770.5 2183.23 2758.23 2195.5 2743.1 2195.5L2145.9 2195.5C2130.77 2195.5 2118.5 2183.23 2118.5 2168.1Z" stroke="#000000" stroke-width="33.2292" stroke-linecap="butt" stroke-linejoin="miter" stroke-miterlimit="8" stroke-opacity="1" fill="none" fill-rule="evenodd"/><path d="M2118.5 1295.46C2118.5 1289.96 2122.96 1285.5 2128.46 1285.5L2348.54 1285.5C2354.04 1285.5 2358.5 1289.96 2358.5 1295.46L2358.5 1512.54C2358.5 1518.04 2354.04 1522.5 2348.54 1522.5L2128.46 1522.5C2122.96 1522.5 2118.5 1518.04 2118.5 1512.54Z" stroke="#000000" stroke-width="33.2292" stroke-linecap="butt" stroke-linejoin="miter" stroke-miterlimit="8" stroke-opacity="1" fill="none" fill-rule="evenodd"/><path d="M0 0 240 236.734" stroke="#000000" stroke-width="32.0833" stroke-linecap="butt" stroke-linejoin="miter" stroke-miterlimit="8" stroke-opacity="1" fill="none" fill-rule="evenodd" transform="matrix(1 0 0 -1 2118 1517.73)"/><path d="M1968.42 1405.2 2230.56 1146.76 2348.19 1266.07 2086.05 1524.51Z" stroke="#FFFFFF" stroke-width="4.58333" stroke-linecap="butt" stroke-linejoin="miter" stroke-miterlimit="8" stroke-opacity="1" fill="#FFFFFF" fill-rule="nonzero" fill-opacity="1"/><path d="M2024.5 1795.33C2024.5 1779.96 2036.96 1767.5 2052.33 1767.5L2832.67 1767.5C2848.04 1767.5 2860.5 1779.96 2860.5 1795.33L2860.5 1961.67C2860.5 1977.04 2848.04 1989.5 2832.67 1989.5L2052.33 1989.5C2036.96 1989.5 2024.5 1977.04 2024.5 1961.67Z" stroke="#000000" stroke-width="4.58333" stroke-linecap="butt" stroke-linejoin="miter" stroke-miterlimit="8" stroke-opacity="1" fill="#000000" fill-rule="evenodd" fill-opacity="1"/><text fill="#FFFFFF" fill-opacity="1" font-family="Avenir Book,Avenir Book_MSFontService,sans-serif" font-style="normal" font-variant="normal" font-weight="700" font-stretch="normal" font-size="110" text-anchor="start" direction="ltr" writing-mode="lr-tb" unicode-bidi="normal" text-decoration="none" transform="matrix(1 0 0 1 2307.18 1912)">SNVs</text></g></g></svg>