<svg width="903" height="1077" xmlns="http://www.w3.org/2000/svg" xmlns:xlink="http://www.w3.org/1999/xlink" xml:space="preserve" overflow="hidden"><g transform="translate(-3121 -1168)"><g><path d="M3276.5 1342.9C3276.5 1327.77 3288.77 1315.5 3303.9 1315.5L3901.1 1315.5C3916.23 1315.5 3928.5 1327.77 3928.5 1342.9L3928.5 2198.1C3928.5 2213.23 3916.23 2225.5 3901.1 2225.5L3303.9 2225.5C3288.77 2225.5 3276.5 2213.23 3276.5 2198.1Z" stroke="#000000" stroke-width="33.2292" stroke-linecap="butt" stroke-linejoin="miter" stroke-miterlimit="8" stroke-opacity="1" fill="none" fill-rule="evenodd"/><path d="M3276.5 1325.46C3276.5 1319.96 3280.96 1315.5 3286.46 1315.5L3506.54 1315.5C3512.04 1315.5 3516.5 1319.96 3516.5 1325.46L3516.5 1542.54C3516.5 1548.04 3512.04 1552.5 3506.54 1552.5L3286.46 1552.5C3280.96 1552.5 3276.5 1548.04 3276.5 1542.54Z" stroke="#000000" stroke-width="33.2292" stroke-linecap="butt" stroke-linejoin="miter" stroke-miterlimit="8" stroke-opacity="1" fill="none" fill-rule="evenodd"/><path d="M0 0 240 236.734" stroke="#000000" stroke-width="32.0833" stroke-linecap="butt" stroke-linejoin="miter" stroke-miterlimit="8" stroke-opacity="1" fill="none" fill-rule="evenodd" transform="matrix(1 0 0 -1 3276 1547.73)"/><path d="M3126.59 1434.81 3388.72 1176.37 3506.35 1295.68 3244.21 1554.12Z" stroke="#FFFFFF" stroke-width="4.58333" stroke-linecap="butt" stroke-linejoin="miter" stroke-miterlimit="8" stroke-opacity="1" fill="#FFFFFF" fill-rule="nonzero" fill-opacity="1"/><path d="M3182.5 1825.2C3182.5 1809.9 3194.9 1797.5 3210.2 1797.5L3990.8 1797.5C4006.1 1797.5 4018.5 1809.9 4018.5 1825.2L4018.5 1990.8C4018.5 2006.1 4006.1 2018.5 3990.8 2018.5L3210.2 2018.5C3194.9 2018.5 3182.5 2006.1 3182.5 1990.8Z" stroke="#000000" stroke-width="4.58333" stroke-linecap="butt" stroke-linejoin="miter" stroke-miterlimit="8" stroke-opacity="1" fill="#000000" fill-rule="evenodd" fill-opacity="1"/><text fill="#FFFFFF" fill-opacity="1" font-family="Avenir Book,Avenir Book_MSFontService,sans-serif" font-style="normal" font-variant="normal" font-weight="700" font-stretch="normal" font-size="110" text-anchor="start" direction="ltr" writing-mode="lr-tb" unicode-bidi="normal" text-decoration="none" transform="matrix(1 0 0 1 3475.37 1942)">Stats</text></g></g></svg>